ISO-10303-21;
HEADER;
FILE_DESCRIPTION(('Open CASCADE Model'),'2;1');
FILE_NAME('Open CASCADE Shape Model','2026-09-13T10:34:26',('Author'),(
    'Open CASCADE'),'Open CASCADE STEP processor 7.9','Open CASCADE 7.9'
  ,'Unknown');
FILE_SCHEMA(('AUTOMOTIVE_DESIGN { 1 0 10303 214 1 1 1 1 }'));
ENDSEC;
DATA;
#1 = APPLICATION_PROTOCOL_DEFINITION('international standard',
  'automotive_design',2000,#2);
#2 = APPLICATION_CONTEXT(
  'core data for automotive mechanical design processes');
#3 = SHAPE_DEFINITION_REPRESENTATION(#4,#10);
#4 = PRODUCT_DEFINITION_SHAPE('','',#5);
#5 = PRODUCT_DEFINITION('design','',#6,#9);
#6 = PRODUCT_DEFINITION_FORMATION('','',#7);
#7 = PRODUCT('Open CASCADE STEP translator 7.9 7',
  'Open CASCADE STEP translator 7.9 7','',(#8));
#8 = PRODUCT_CONTEXT('',#2,'mechanical');
#9 = PRODUCT_DEFINITION_CONTEXT('part definition',#2,'design');
#10 = ADVANCED_BREP_SHAPE_REPRESENTATION('',(#11,#15),#471);
#11 = AXIS2_PLACEMENT_3D('',#12,#13,#14);
#12 = CARTESIAN_POINT('',(0.,0.,0.));
#13 = DIRECTION('',(0.,0.,1.));
#14 = DIRECTION('',(1.,0.,-0.));
#15 = MANIFOLD_SOLID_BREP('',#16);
#16 = CLOSED_SHELL('',(#17,#463,#467));
#17 = ADVANCED_FACE('',(#18),#49,.T.);
#18 = FACE_BOUND('',#19,.T.);
#19 = EDGE_LOOP('',(#20,#362,#412,#413));
#20 = ORIENTED_EDGE('',*,*,#21,.T.);
#21 = EDGE_CURVE('',#22,#24,#26,.T.);
#22 = VERTEX_POINT('',#23);
#23 = CARTESIAN_POINT('',(7.3,4.394299510136E-15,-1.144462421228E-15));
#24 = VERTEX_POINT('',#25);
#25 = CARTESIAN_POINT('',(-7.299999999999,8.142304755105E-08,
    7.500000716235));
#26 = SEAM_CURVE('',#27,(#48,#356),.PCURVE_S1.);
#27 = B_SPLINE_CURVE_WITH_KNOTS('',10,(#28,#29,#30,#31,#32,#33,#34,#35,
    #36,#37,#38,#39,#40,#41,#42,#43,#44,#45,#46,#47),.UNSPECIFIED.,.F.,
  .F.,(11,9,11),(0.,6.022384071317,12.044768142634),.UNSPECIFIED.);
#28 = CARTESIAN_POINT('',(7.3,7.993605777301E-15,-2.22044604925E-15));
#29 = CARTESIAN_POINT('',(7.299999991857,3.440042453335,0.375002991966)
  );
#30 = CARTESIAN_POINT('',(5.498936439643,6.880199704125,0.74999189674));
#31 = CARTESIAN_POINT('',(1.895513013841,9.258509261811,1.125012497637)
  );
#32 = CARTESIAN_POINT('',(-2.789990663331,9.518005420994,1.499986284273)
  );
#33 = CARTESIAN_POINT('',(-7.147889928193,7.147890032336,1.874999674182)
  );
#34 = CARTESIAN_POINT('',(-9.518004726557,2.789991114777,2.250004660644)
  );
#35 = CARTESIAN_POINT('',(-9.258509186703,-1.895512928774,2.624986744126
    ));
#36 = CARTESIAN_POINT('',(-6.88019916263,-5.498936334664,3.000002668563)
  );
#37 = CARTESIAN_POINT('',(-3.440042453336,-7.3,3.37499707966));
#38 = CARTESIAN_POINT('',(3.440042453336,-7.3,4.125002920341));
#39 = CARTESIAN_POINT('',(6.880199712648,-5.498936351744,4.499992669945)
  );
#40 = CARTESIAN_POINT('',(9.258509284195,-1.895512964864,4.875012928456)
  );
#41 = CARTESIAN_POINT('',(9.518005459354,2.789991072504,5.249989883554)
  );
#42 = CARTESIAN_POINT('',(7.147890085623,7.147890005944,5.625000358118)
  );
#43 = CARTESIAN_POINT('',(2.789991178721,9.518005428207,6.00001083268));
#44 = CARTESIAN_POINT('',(-1.895512861638,9.258509305348,6.374987787781)
  );
#45 = CARTESIAN_POINT('',(-5.498936274981,6.880199773981,6.750008046289)
  );
#46 = CARTESIAN_POINT('',(-7.299999961637,3.440042534759,7.124997795894)
  );
#47 = CARTESIAN_POINT('',(-7.299999999999,8.142304750445E-08,
    7.500000716235));
#48 = PCURVE('',#49,#350);
#49 = B_SPLINE_SURFACE_WITH_KNOTS('',14,10,(
    (#50,#51,#52,#53,#54,#55,#56,#57,#58,#59,#60,#61,#62,#63,#64,#65,#66
      ,#67,#68,#69)
    ,(#70,#71,#72,#73,#74,#75,#76,#77,#78,#79,#80,#81,#82,#83,#84,#85
      ,#86,#87,#88,#89)
    ,(#90,#91,#92,#93,#94,#95,#96,#97,#98,#99,#100,#101,#102,#103,#104
      ,#105,#106,#107,#108,#109)
    ,(#110,#111,#112,#113,#114,#115,#116,#117,#118,#119,#120,#121,#122
      ,#123,#124,#125,#126,#127,#128,#129)
    ,(#130,#131,#132,#133,#134,#135,#136,#137,#138,#139,#140,#141,#142
      ,#143,#144,#145,#146,#147,#148,#149)
    ,(#150,#151,#152,#153,#154,#155,#156,#157,#158,#159,#160,#161,#162
      ,#163,#164,#165,#166,#167,#168,#169)
    ,(#170,#171,#172,#173,#174,#175,#176,#177,#178,#179,#180,#181,#182
      ,#183,#184,#185,#186,#187,#188,#189)
    ,(#190,#191,#192,#193,#194,#195,#196,#197,#198,#199,#200,#201,#202
      ,#203,#204,#205,#206,#207,#208,#209)
    ,(#210,#211,#212,#213,#214,#215,#216,#217,#218,#219,#220,#221,#222
      ,#223,#224,#225,#226,#227,#228,#229)
    ,(#230,#231,#232,#233,#234,#235,#236,#237,#238,#239,#240,#241,#242
      ,#243,#244,#245,#246,#247,#248,#249)
    ,(#250,#251,#252,#253,#254,#255,#256,#257,#258,#259,#260,#261,#262
      ,#263,#264,#265,#266,#267,#268,#269)
    ,(#270,#271,#272,#273,#274,#275,#276,#277,#278,#279,#280,#281,#282
      ,#283,#284,#285,#286,#287,#288,#289)
    ,(#290,#291,#292,#293,#294,#295,#296,#297,#298,#299,#300,#301,#302
      ,#303,#304,#305,#306,#307,#308,#309)
    ,(#310,#311,#312,#313,#314,#315,#316,#317,#318,#319,#320,#321,#322
      ,#323,#324,#325,#326,#327,#328,#329)
    ,(#330,#331,#332,#333,#334,#335,#336,#337,#338,#339,#340,#341,#342
      ,#343,#344,#345,#346,#347,#348,#349
    )),.UNSPECIFIED.,.T.,.F.,.F.,(1,14,14,1),(11,9,11),(-6.28318530718,
    0.,6.28318530718,12.56637061436),(0.,6.022384071317,12.044768142634)
  ,.UNSPECIFIED.);
#50 = CARTESIAN_POINT('',(7.3,7.993605777301E-15,-2.22044604925E-15));
#51 = CARTESIAN_POINT('',(7.299999991857,3.440042453335,0.375002991966)
  );
#52 = CARTESIAN_POINT('',(5.498936439643,6.880199704125,0.74999189674));
#53 = CARTESIAN_POINT('',(1.895513013841,9.258509261811,1.125012497637)
  );
#54 = CARTESIAN_POINT('',(-2.789990663331,9.518005420994,1.499986284273)
  );
#55 = CARTESIAN_POINT('',(-7.147889928193,7.147890032336,1.874999674182)
  );
#56 = CARTESIAN_POINT('',(-9.518004726557,2.789991114777,2.250004660644)
  );
#57 = CARTESIAN_POINT('',(-9.258509186703,-1.895512928774,2.624986744126
    ));
#58 = CARTESIAN_POINT('',(-6.88019916263,-5.498936334664,3.000002668563)
  );
#59 = CARTESIAN_POINT('',(-3.440042453336,-7.3,3.37499707966));
#60 = CARTESIAN_POINT('',(3.440042453336,-7.3,4.125002920341));
#61 = CARTESIAN_POINT('',(6.880199712648,-5.498936351744,4.499992669945)
  );
#62 = CARTESIAN_POINT('',(9.258509284195,-1.895512964864,4.875012928456)
  );
#63 = CARTESIAN_POINT('',(9.518005459354,2.789991072504,5.249989883554)
  );
#64 = CARTESIAN_POINT('',(7.147890085623,7.147890005944,5.625000358118)
  );
#65 = CARTESIAN_POINT('',(2.789991178721,9.518005428207,6.00001083268));
#66 = CARTESIAN_POINT('',(-1.895512861638,9.258509305348,6.374987787781)
  );
#67 = CARTESIAN_POINT('',(-5.498936274981,6.880199773981,6.750008046289)
  );
#68 = CARTESIAN_POINT('',(-7.299999961637,3.440042534759,7.124997795894)
  );
#69 = CARTESIAN_POINT('',(-7.299999999999,8.142304750445E-08,
    7.500000716235));
#70 = CARTESIAN_POINT('',(7.300000000001,1.498816882532E-02,
    -0.131842819016));
#71 = CARTESIAN_POINT('',(7.292938342169,3.455030664392,0.243160181386)
  );
#72 = CARTESIAN_POINT('',(5.484815861299,6.891478935653,0.618149051892)
  );
#73 = CARTESIAN_POINT('',(1.876484226441,9.262438322266,0.993169689262)
  );
#74 = CARTESIAN_POINT('',(-2.809517653546,9.512231776088,1.36814345263)
  );
#75 = CARTESIAN_POINT('',(-7.162546923825,7.133234944855,1.743156810971)
  );
#76 = CARTESIAN_POINT('',(-9.523779827998,2.770465512089,2.118161817777)
  );
#77 = CARTESIAN_POINT('',(-9.254580764327,-1.914540429918,2.49314391606)
  );
#78 = CARTESIAN_POINT('',(-6.868920610674,-5.51305500863,2.868159801246)
  );
#79 = CARTESIAN_POINT('',(-3.425054358678,-7.30706164971,3.243154252222)
  );
#80 = CARTESIAN_POINT('',(3.455030696373,-7.292938350326,3.993160109732)
  );
#81 = CARTESIAN_POINT('',(6.89147856172,-5.484815772847,4.368149829004)
  );
#82 = CARTESIAN_POINT('',(9.262438108691,-1.87648417666,4.743170129526)
  );
#83 = CARTESIAN_POINT('',(9.512230768995,2.809518065157,5.118147069398)
  );
#84 = CARTESIAN_POINT('',(7.133233400373,7.162547003604,5.493157517557)
  );
#85 = CARTESIAN_POINT('',(2.770464308414,9.523780533409,5.868168018633)
  );
#86 = CARTESIAN_POINT('',(-1.914541733145,9.25458088596,6.24314498872));
#87 = CARTESIAN_POINT('',(-5.513057093898,6.868921225183,6.618165205439)
  );
#88 = CARTESIAN_POINT('',(-7.307061930113,3.425054441951,6.993154985246)
  );
#89 = CARTESIAN_POINT('',(-7.300000318836,-1.498808740257E-02,
    7.368157897218));
#90 = CARTESIAN_POINT('',(7.236695737488,3.02670448465E-02,
    -0.266242831996));
#91 = CARTESIAN_POINT('',(7.222422111451,3.440530247703,0.108759546731)
  );
#92 = CARTESIAN_POINT('',(5.422677963397,6.843417743809,0.483793882848)
  );
#93 = CARTESIAN_POINT('',(1.840574024595,9.186301729064,0.858631108638)
  );
#94 = CARTESIAN_POINT('',(-2.805455226303,9.423915917576,1.234225448334)
  );
#95 = CARTESIAN_POINT('',(-7.115646621688,7.056502817701,1.608150455568)
  );
#96 = CARTESIAN_POINT('',(-9.447406017781,2.726324776931,1.98455944076)
  );
#97 = CARTESIAN_POINT('',(-9.170436065366,-1.917416078423,2.358338725274
    ));
#98 = CARTESIAN_POINT('',(-6.797903425984,-5.479812096433,2.734061402144
    ));
#99 = CARTESIAN_POINT('',(-3.379996222212,-7.250969357013,3.108754845737
    ));
#100 = CARTESIAN_POINT('',(3.440530311703,-7.222422117811,3.858759490341
    ));
#101 = CARTESIAN_POINT('',(6.843422274039,-5.422682802186,4.233751322971
    ));
#102 = CARTESIAN_POINT('',(9.18628466757,-1.840558520642,4.608767477943)
  );
#103 = CARTESIAN_POINT('',(9.423972130775,2.805401067004,4.983749055734)
  );
#104 = CARTESIAN_POINT('',(7.056426140083,7.115715643323,5.358757580344)
  );
#105 = CARTESIAN_POINT('',(2.726419150276,9.447315769189,5.733765591373)
  );
#106 = CARTESIAN_POINT('',(-1.917468212994,9.17048255228,6.108747633524)
  );
#107 = CARTESIAN_POINT('',(-5.479779576597,6.797869554609,6.483763459708
    ));
#108 = CARTESIAN_POINT('',(-7.250969970912,3.379996290636,6.858755445244
    ));
#109 = CARTESIAN_POINT('',(-7.236696381346,-3.026698060302E-02,
    7.233757733108));
#110 = CARTESIAN_POINT('',(7.106729661338,4.209066603588E-02,
    -0.370248836352));
#111 = CARTESIAN_POINT('',(7.08697349713,3.390695259444,
    4.752244097542E-03));
#112 = CARTESIAN_POINT('',(5.314006775395,6.728987914981,0.379551395308)
  );
#113 = CARTESIAN_POINT('',(1.792506407081,9.023336115668,0.755375676934)
  );
#114 = CARTESIAN_POINT('',(-2.769668062658,9.248831283866,1.127561474984
    ));
#115 = CARTESIAN_POINT('',(-6.998770602653,6.916472409767,1.507515913719
    ));
#116 = CARTESIAN_POINT('',(-9.280334456425,2.660861739152,1.876111598402
    ));
#117 = CARTESIAN_POINT('',(-9.001407310088,-1.899005015004,
    2.256606379027));
#118 = CARTESIAN_POINT('',(-6.665393092718,-5.392931441698,
    2.628374324227));
#119 = CARTESIAN_POINT('',(-3.306514017266,-7.126485822906,
    3.004750108741));
#120 = CARTESIAN_POINT('',(3.390695349903,-7.08697350019,3.75475221836)
  );
#121 = CARTESIAN_POINT('',(6.728978828807,-5.313984368674,4.129748483411
    ));
#122 = CARTESIAN_POINT('',(9.023360900612,-1.792576865076,4.504755924712
    ));
#123 = CARTESIAN_POINT('',(9.248738315687,2.769916557967,4.879747306726)
  );
#124 = CARTESIAN_POINT('',(6.916582574498,6.99845634418,5.254751609307)
  );
#125 = CARTESIAN_POINT('',(2.660707525914,9.28074861851,5.629754708041)
  );
#126 = CARTESIAN_POINT('',(-1.898931688228,9.001195933333,6.004747044459
    ));
#127 = CARTESIAN_POINT('',(-5.392994094916,6.665549929485,6.379753917064
    ));
#128 = CARTESIAN_POINT('',(-7.126486703812,3.306514050732,6.75475040977)
  );
#129 = CARTESIAN_POINT('',(-7.106730556703,-4.209063707386E-02,
    7.129751418448));
#130 = CARTESIAN_POINT('',(6.924770288166,4.533542291548E-02,
    -0.398791208031));
#131 = CARTESIAN_POINT('',(6.903211730184,3.309842078612,
    -2.379190559979E-02));
#132 = CARTESIAN_POINT('',(5.172578521106,6.563331186184,0.351773658481)
  );
#133 = CARTESIAN_POINT('',(1.73862885032,8.798241810978,0.724432454182)
  );
#134 = CARTESIAN_POINT('',(-2.709932776153,9.01515229784,1.107461279777)
  );
#135 = CARTESIAN_POINT('',(-6.82860525542,6.739833899022,1.468300040492)
  );
#136 = CARTESIAN_POINT('',(-9.052246174342,2.589286115034,1.861623220655
    ));
#137 = CARTESIAN_POINT('',(-8.774381833709,-1.854501269075,2.22089153405
    ));
#138 = CARTESIAN_POINT('',(-6.495686219988,-5.259074074037,
    2.605149162147));
#139 = CARTESIAN_POINT('',(-3.219171328659,-6.94632884764,2.97620947166)
  );
#140 = CARTESIAN_POINT('',(3.309842173335,-6.903211727834,3.726208112686
    ));
#141 = CARTESIAN_POINT('',(6.563349415194,-5.172642550674,4.101210448427
    ));
#142 = CARTESIAN_POINT('',(8.798180242477,-1.738427230991,4.476205933061
    ));
#143 = CARTESIAN_POINT('',(9.015362832157,2.709222199477,4.851210814928)
  );
#144 = CARTESIAN_POINT('',(6.73955942335,6.829504397007,5.22620918782));
#145 = CARTESIAN_POINT('',(2.58963758044,9.051061882612,5.601205746932)
  );
#146 = CARTESIAN_POINT('',(-1.854686752123,8.774986683806,5.976212008248
    ));
#147 = CARTESIAN_POINT('',(-5.258945709525,6.495238031904,6.351206724479
    ));
#148 = CARTESIAN_POINT('',(-6.946329823225,3.219171315873,6.726209345553
    ));
#149 = CARTESIAN_POINT('',(-6.924771252583,-4.533544332062E-02,
    7.101208612395));
#150 = CARTESIAN_POINT('',(6.748862806884,3.882828740031E-02,
    -0.341551455501));
#151 = CARTESIAN_POINT('',(6.730871949706,3.216219114081,
    3.344599957869E-02));
#152 = CARTESIAN_POINT('',(5.049083862403,6.38382014162,0.407322214127)
  );
#153 = CARTESIAN_POINT('',(1.707139312001,8.560930470096,0.787007533635)
  );
#154 = CARTESIAN_POINT('',(-2.620935110617,8.775092281219,1.145881647289
    ));
#155 = CARTESIAN_POINT('',(-6.637889257347,6.561841303128,1.549367615563
    ));
#156 = CARTESIAN_POINT('',(-8.801022897077,2.523460327676,1.887480358712
    ));
#157 = CARTESIAN_POINT('',(-8.54121409388,-1.804307301193,2.294168579706
    ));
#158 = CARTESIAN_POINT('',(-6.324205005808,-5.120753738027,
    2.650513865533));
#159 = CARTESIAN_POINT('',(-3.138562622949,-6.76685367181,3.033451028997
    ));
#160 = CARTESIAN_POINT('',(3.2162191996,-6.730871943336,3.78344605933));
#161 = CARTESIAN_POINT('',(6.38380686734,-5.048955109734,4.158454744791)
  );
#162 = CARTESIAN_POINT('',(8.560968780234,-1.707545151944,4.533437669988
    ));
#163 = CARTESIAN_POINT('',(8.774951925374,2.622364706884,4.908456883511)
  );
#164 = CARTESIAN_POINT('',(6.56201219746,6.636079534264,5.283448644132)
  );
#165 = CARTESIAN_POINT('',(2.523226899889,8.803405528733,5.658438921001)
  );
#166 = CARTESIAN_POINT('',(-1.804193091968,8.539996621988,6.033459242004
    ));
#167 = CARTESIAN_POINT('',(-5.120845900766,6.325106249421,6.408441569923
    ));
#168 = CARTESIAN_POINT('',(-6.766854527547,3.138562556773,6.783450468975
    ));
#169 = CARTESIAN_POINT('',(-6.748863632827,-3.882835558484E-02,
    7.158447944864));
#170 = CARTESIAN_POINT('',(6.608615032419,2.267655644648E-02,
    -0.199473407932));
#171 = CARTESIAN_POINT('',(6.597687978934,3.141626822389,0.175522800866)
  );
#172 = CARTESIAN_POINT('',(4.954246823767,6.255637942336,0.552227340158)
  );
#173 = CARTESIAN_POINT('',(1.681500438756,8.401788533597,0.920185726085)
  );
#174 = CARTESIAN_POINT('',(-2.568759694924,8.623691025336,1.319308429755
    ));
#175 = CARTESIAN_POINT('',(-6.505983656013,6.462733714154,1.651779604022
    ));
#176 = CARTESIAN_POINT('',(-8.645683873986,2.505882068787,2.081794829203
    ));
#177 = CARTESIAN_POINT('',(-8.388733547511,-1.739960411592,
    2.409568219077));
#178 = CARTESIAN_POINT('',(-6.223016701298,-4.998193986982,
    2.812356675322));
#179 = CARTESIAN_POINT('',(-3.096273755519,-6.619542095284,
    3.175530290735));
#180 = CARTESIAN_POINT('',(3.141626866014,-6.597687967762,3.925522894291
    ));
#181 = CARTESIAN_POINT('',(6.255633382438,-4.9544391226,4.300535839099)
  );
#182 = CARTESIAN_POINT('',(8.40180078436,-1.680895113568,4.67551032611)
  );
#183 = CARTESIAN_POINT('',(8.623644306717,2.566625942406,5.050539157772)
  );
#184 = CARTESIAN_POINT('',(6.462788765494,6.508683276724,5.425526464792)
  );
#185 = CARTESIAN_POINT('',(2.505804343908,8.64212761022,5.800512511172)
  );
#186 = CARTESIAN_POINT('',(-1.739923813213,8.390549527956,6.175542279341
    ));
#187 = CARTESIAN_POINT('',(-4.998225735142,6.221670651492,6.550516266002
    ));
#188 = CARTESIAN_POINT('',(-6.619542630644,3.096273656091,6.925529386999
    ));
#189 = CARTESIAN_POINT('',(-6.608615514853,-2.2676662638E-02,
    7.300525657744));
#190 = CARTESIAN_POINT('',(6.551825394583,-1.062010202002E-10,
    -7.825629033676E-12));
#191 = CARTESIAN_POINT('',(6.551825406232,3.081980152586,0.374995414627)
  );
#192 = CARTESIAN_POINT('',(4.937674387839,6.163228682223,0.748078716895)
  );
#193 = CARTESIAN_POINT('',(1.70703676196,8.292815674517,1.131072007923)
  );
#194 = CARTESIAN_POINT('',(-2.489346080605,8.522976799439,1.478556932987
    ));
#195 = CARTESIAN_POINT('',(-6.401177012497,6.39858552612,1.902164404828)
  );
#196 = CARTESIAN_POINT('',(-8.51930355401,2.491131290518,2.214219379253)
  );
#197 = CARTESIAN_POINT('',(-8.294781787441,-1.707395193304,
    2.643293798231));
#198 = CARTESIAN_POINT('',(-6.16172607514,-4.937702253071,2.986460000213
    ));
#199 = CARTESIAN_POINT('',(-3.081980156498,-6.551825396418,
    3.375004477303));
#200 = CARTESIAN_POINT('',(3.081980158842,-6.551825394664,4.124995521716
    ));
#201 = CARTESIAN_POINT('',(6.163264002262,-4.937454687827,4.500011247596
    ));
#202 = CARTESIAN_POINT('',(8.292704318012,-1.707729310333,4.874980162929
    ));
#203 = CARTESIAN_POINT('',(8.523369162064,2.491785566504,5.250015557458)
  );
#204 = CARTESIAN_POINT('',(6.398088796818,6.398088808545,5.624999413145)
  );
#205 = CARTESIAN_POINT('',(2.491785316584,8.523369316938,5.999983462797)
  );
#206 = CARTESIAN_POINT('',(-1.707729421878,8.292704219411,6.375018708194
    ));
#207 = CARTESIAN_POINT('',(-4.937454822996,6.163263941231,6.749987707887
    ));
#208 = CARTESIAN_POINT('',(-6.551825450622,3.081980030679,7.125003402249
    ));
#209 = CARTESIAN_POINT('',(-6.551825394531,-1.215736939036E-07,
    7.499998929896));
#210 = CARTESIAN_POINT('',(6.608615032436,-2.267655625391E-02,
    0.199473407946));
#211 = CARTESIAN_POINT('',(6.619542108128,3.096273578889,0.574469590549)
  );
#212 = CARTESIAN_POINT('',(4.998033102458,6.221727514463,0.95117331868)
  );
#213 = CARTESIAN_POINT('',(1.740528493933,8.390366591711,1.319135327032)
  );
#214 = CARTESIAN_POINT('',(-2.50793673683,8.642766332613,1.718245022761)
  );
#215 = CARTESIAN_POINT('',(-6.460090416483,6.507869657449,2.050739541573
    ));
#216 = CARTESIAN_POINT('',(-8.627197834559,2.567691509789,2.480724273097
    ));
#217 = CARTESIAN_POINT('',(-8.399985262601,-1.681442436197,
    2.808523996917));
#218 = CARTESIAN_POINT('',(-6.256978095376,-4.95403778073,3.2112968986)
  );
#219 = CARTESIAN_POINT('',(-3.141626638668,-6.597687966259,3.57447713263
    ));
#220 = CARTESIAN_POINT('',(3.096273523906,-6.619542096925,4.324469684117
    ));
#221 = CARTESIAN_POINT('',(6.221670293553,-4.998225292139,4.699482776406
    ));
#222 = CARTESIAN_POINT('',(8.390548866891,-1.739923519926,5.074456839622
    ));
#223 = CARTESIAN_POINT('',(8.642127020772,2.505804203101,5.449486472681)
  );
#224 = CARTESIAN_POINT('',(6.508682586934,6.462788479464,5.824472694678)
  );
#225 = CARTESIAN_POINT('',(2.566625690075,8.623643601706,6.199459826151)
  );
#226 = CARTESIAN_POINT('',(-1.680895167855,8.4018001902,6.574488792732)
  );
#227 = CARTESIAN_POINT('',(-4.954438842876,6.255632808876,6.94946320352)
  );
#228 = CARTESIAN_POINT('',(-6.597687536778,3.141626533245,7.324476176708
    ));
#229 = CARTESIAN_POINT('',(-6.608614550099,2.267645006733E-02,
    7.69947247363));
#230 = CARTESIAN_POINT('',(6.748862806859,-3.882828754325E-02,
    0.34155145549));
#231 = CARTESIAN_POINT('',(6.766853676887,3.138562323635,0.71654886776)
  );
#232 = CARTESIAN_POINT('',(5.120973813435,6.32505087204,1.090426528495)
  );
#233 = CARTESIAN_POINT('',(1.803787394042,8.540164395966,1.470106276412)
  );
#234 = CARTESIAN_POINT('',(-2.521798666607,8.802804420311,1.828998628442
    ));
#235 = CARTESIAN_POINT('',(-6.563819234167,6.636831493494,2.232453023133
    ));
#236 = CARTESIAN_POINT('',(-8.772570863783,2.621364707201,2.570606224754
    ));
#237 = CARTESIAN_POINT('',(-8.562183895761,-1.70703927372,2.977259907345
    ));
#238 = CARTESIAN_POINT('',(-6.382905793379,-5.04933656865,3.333625452008
    ));
#239 = CARTESIAN_POINT('',(-3.216218820035,-6.730871944364,
    3.716553983061));
#240 = CARTESIAN_POINT('',(3.138562246589,-6.76685367057,4.466548927302)
  );
#241 = CARTESIAN_POINT('',(6.325105515645,-5.120845198714,4.841557847749
    ));
#242 = CARTESIAN_POINT('',(8.539995657003,-1.804192812319,5.216540118888
    ));
#243 = CARTESIAN_POINT('',(8.803404375512,2.52322674807,5.591560539852)
  );
#244 = CARTESIAN_POINT('',(6.636078753205,6.562011401588,5.966550686934)
  );
#245 = CARTESIAN_POINT('',(2.622364253823,8.774950971397,6.341542577227)
  );
#246 = CARTESIAN_POINT('',(-1.70754498521,8.560967687799,6.716561691117)
  );
#247 = CARTESIAN_POINT('',(-5.048954563389,6.38380607245,7.091544672535)
  );
#248 = CARTESIAN_POINT('',(-6.73087114825,3.216218744197,7.466553337139)
  );
#249 = CARTESIAN_POINT('',(-6.748861980846,3.882821935135E-02,
    7.841550855838));
#250 = CARTESIAN_POINT('',(6.924770288189,-4.533542282973E-02,
    0.398791208038));
#251 = CARTESIAN_POINT('',(6.946328850785,3.219170974745,0.773790458854)
  );
#252 = CARTESIAN_POINT('',(5.258881063221,6.495275923993,1.149355249765)
  );
#253 = CARTESIAN_POINT('',(1.854887690453,8.774859119212,1.522017783888)
  );
#254 = CARTESIAN_POINT('',(-2.590346429461,9.051499475634,1.905032738256
    ));
#255 = CARTESIAN_POINT('',(-6.738661114128,6.828940015501,2.265896687876
    ));
#256 = CARTESIAN_POINT('',(-9.016543586365,2.709953858723,2.659186834917
    ));
#257 = CARTESIAN_POINT('',(-8.797575347765,-1.738806853174,
    3.018483720474));
#258 = CARTESIAN_POINT('',(-6.5637958246,-5.172369446357,3.402724474824)
  );
#259 = CARTESIAN_POINT('',(-3.309841721534,-6.903211727276,
    3.773791939107));
#260 = CARTESIAN_POINT('',(3.219170874901,-6.946328848391,4.523790477328
    ));
#261 = CARTESIAN_POINT('',(6.495237142019,-5.258944973659,4.898793085594
    ));
#262 = CARTESIAN_POINT('',(8.774985424431,-1.854686461122,5.273787835729
    ));
#263 = CARTESIAN_POINT('',(9.051060647292,2.589637190372,5.648794037418)
  );
#264 = CARTESIAN_POINT('',(6.829503374673,6.739558532386,6.023790673956)
  );
#265 = CARTESIAN_POINT('',(2.709221830658,9.015361523321,6.398788969438)
  );
#266 = CARTESIAN_POINT('',(-1.738427029325,8.798179028921,6.773793910847
    ));
#267 = CARTESIAN_POINT('',(-5.172641837215,6.563348469346,7.148789361864
    ));
#268 = CARTESIAN_POINT('',(-6.903210773973,3.309841696938,7.52379171006)
  );
#269 = CARTESIAN_POINT('',(-6.924769323815,4.533540243052E-02,
    7.898791028475));
#270 = CARTESIAN_POINT('',(7.106729661324,-4.209066607624E-02,
    0.370248836349));
#271 = CARTESIAN_POINT('',(7.126485819451,3.306513690741,0.745249869706)
  );
#272 = CARTESIAN_POINT('',(5.393015800335,6.665532790654,1.120049695868)
  );
#273 = CARTESIAN_POINT('',(1.89886118499,9.001242198545,1.495871682098)
  );
#274 = CARTESIAN_POINT('',(-2.660459211797,9.28057468167,1.868064494695)
  );
#275 = CARTESIAN_POINT('',(-6.916895254537,6.998666611103,2.24800715342)
  );
#276 = CARTESIAN_POINT('',(-9.248323905015,2.769628994282,2.616617794201
    ));
#277 = CARTESIAN_POINT('',(-9.023570706524,-1.792435376823,
    2.997099843857));
#278 = CARTESIAN_POINT('',(-6.728821531295,-5.314096690529,3.36887527479
    ));
#279 = CARTESIAN_POINT('',(-3.390694934419,-7.086973500427,3.74524782868
    ));
#280 = CARTESIAN_POINT('',(3.306513602724,-7.126485822543,4.495249843853
    ));
#281 = CARTESIAN_POINT('',(6.66554906147,-5.392993443939,4.870246342635)
  );
#282 = CARTESIAN_POINT('',(9.001194807875,-1.89893149836,5.245253199258)
  );
#283 = CARTESIAN_POINT('',(9.280747447046,2.660707165359,5.620245563685)
  );
#284 = CARTESIAN_POINT('',(6.99845552374,6.916581652917,5.995248626099)
  );
#285 = CARTESIAN_POINT('',(2.769916237552,9.24873716462,6.370252964982)
  );
#286 = CARTESIAN_POINT('',(-1.792576583194,9.023359762932,6.745244319078
    ));
#287 = CARTESIAN_POINT('',(-5.313983670563,6.728978016469,7.120251776115
    ));
#288 = CARTESIAN_POINT('',(-7.08697259064,3.390694957238,7.495248035366)
  );
#289 = CARTESIAN_POINT('',(-7.106728765937,4.209069503464E-02,
    7.870249091137));
#290 = CARTESIAN_POINT('',(7.236695737493,-3.026704483249E-02,
    0.266242831997));
#291 = CARTESIAN_POINT('',(7.250969350793,3.379995987099,0.641245176605)
  );
#292 = CARTESIAN_POINT('',(5.47977433829,6.797874988956,1.016279459949)
  );
#293 = CARTESIAN_POINT('',(1.917483544079,9.170459663911,1.391117295124)
  );
#294 = CARTESIAN_POINT('',(-2.726472702813,9.447388583145,1.766708999227
    ));
#295 = CARTESIAN_POINT('',(-7.056356793235,7.115616195039,2.140639035904
    ));
#296 = CARTESIAN_POINT('',(-9.424061059782,2.805524308971,2.517041417109
    ));
#297 = CARTESIAN_POINT('',(-9.186237632868,-1.840625392854,
    2.890826370462));
#298 = CARTESIAN_POINT('',(-6.843455422264,-5.422638806726,
    3.266545756602));
#299 = CARTESIAN_POINT('',(-3.440530012066,-7.222422117735,
    3.641240543788));
#300 = CARTESIAN_POINT('',(3.379995922241,-7.250969357141,4.391245120264
    ));
#301 = CARTESIAN_POINT('',(6.797868901143,-5.479779153855,4.766237103703
    ));
#302 = CARTESIAN_POINT('',(9.170481712629,-1.917468123166,5.141252935419
    ));
#303 = CARTESIAN_POINT('',(9.447314961239,2.726418812135,5.516234967858)
  );
#304 = CARTESIAN_POINT('',(7.115715067537,7.056425454458,5.891242991494)
  );
#305 = CARTESIAN_POINT('',(2.805400908906,9.423971258692,6.266251503491)
  );
#306 = CARTESIAN_POINT('',(-1.840558274657,9.186283870998,6.641233090999
    ));
#307 = CARTESIAN_POINT('',(-5.422682255738,6.843421713118,7.016249240477
    ));
#308 = CARTESIAN_POINT('',(-7.222421443899,3.440530072706,7.391241075141
    ));
#309 = CARTESIAN_POINT('',(-7.236695093641,3.026710907719E-02,
    7.766243397103));
#310 = CARTESIAN_POINT('',(7.3,-1.498816882826E-02,0.131842819016));
#311 = CARTESIAN_POINT('',(7.307061641521,3.425054242176,0.506845802564)
  );
#312 = CARTESIAN_POINT('',(5.513057018056,6.868920472977,0.881834741512)
  );
#313 = CARTESIAN_POINT('',(1.914541801106,9.254580200515,1.256855306179)
  );
#314 = CARTESIAN_POINT('',(-2.770463672919,9.523779067155,1.631829115662
    ));
#315 = CARTESIAN_POINT('',(-7.133232932746,7.162545118399,2.006842537669
    ));
#316 = CARTESIAN_POINT('',(-9.512229625033,2.809516718701,2.381847503291
    ));
#317 = CARTESIAN_POINT('',(-9.262437609038,-1.876485428431,
    2.756829572322));
#318 = CARTESIAN_POINT('',(-6.891477714639,-5.484817660354,
    3.131845535819));
#319 = CARTESIAN_POINT('',(-3.455030548004,-7.292938350341,
    3.506839907122));
#320 = CARTESIAN_POINT('',(3.425054210381,-7.307061649681,4.256845730898
    ));
#321 = CARTESIAN_POINT('',(6.868920863053,-5.513056930468,4.631835511161
    ));
#322 = CARTESIAN_POINT('',(9.254580461041,-1.914541753527,5.006855726698
    ));
#323 = CARTESIAN_POINT('',(9.523780147532,2.770464080657,5.381832698845)
  );
#324 = CARTESIAN_POINT('',(7.162546773267,7.133233007227,5.756843197248)
  );
#325 = CARTESIAN_POINT('',(2.809518047167,9.512230324041,6.131853648086)
  );
#326 = CARTESIAN_POINT('',(-1.876483989116,9.26243772398,6.506830585895)
  );
#327 = CARTESIAN_POINT('',(-5.484815456437,6.891478323165,6.881850887574
    ));
#328 = CARTESIAN_POINT('',(-7.292937993076,3.455030627452,7.256840606427
    ));
#329 = CARTESIAN_POINT('',(-7.299999681162,1.498825025064E-02,
    7.631843535248));
#330 = CARTESIAN_POINT('',(7.3,7.993605777301E-15,-2.22044604925E-15));
#331 = CARTESIAN_POINT('',(7.299999991857,3.440042453335,0.375002991966)
  );
#332 = CARTESIAN_POINT('',(5.498936439643,6.880199704125,0.74999189674)
  );
#333 = CARTESIAN_POINT('',(1.895513013841,9.258509261811,1.125012497637)
  );
#334 = CARTESIAN_POINT('',(-2.789990663331,9.518005420994,1.499986284273
    ));
#335 = CARTESIAN_POINT('',(-7.147889928193,7.147890032336,1.874999674182
    ));
#336 = CARTESIAN_POINT('',(-9.518004726557,2.789991114777,2.250004660644
    ));
#337 = CARTESIAN_POINT('',(-9.258509186703,-1.895512928774,
    2.624986744126));
#338 = CARTESIAN_POINT('',(-6.88019916263,-5.498936334664,3.000002668563
    ));
#339 = CARTESIAN_POINT('',(-3.440042453336,-7.3,3.37499707966));
#340 = CARTESIAN_POINT('',(3.440042453336,-7.3,4.125002920341));
#341 = CARTESIAN_POINT('',(6.880199712648,-5.498936351744,4.499992669945
    ));
#342 = CARTESIAN_POINT('',(9.258509284195,-1.895512964864,4.875012928456
    ));
#343 = CARTESIAN_POINT('',(9.518005459354,2.789991072504,5.249989883554)
  );
#344 = CARTESIAN_POINT('',(7.147890085623,7.147890005944,5.625000358118)
  );
#345 = CARTESIAN_POINT('',(2.789991178721,9.518005428207,6.00001083268)
  );
#346 = CARTESIAN_POINT('',(-1.895512861638,9.258509305348,6.374987787781
    ));
#347 = CARTESIAN_POINT('',(-5.498936274981,6.880199773981,6.750008046289
    ));
#348 = CARTESIAN_POINT('',(-7.299999961637,3.440042534759,7.124997795894
    ));
#349 = CARTESIAN_POINT('',(-7.299999999999,8.142304750445E-08,
    7.500000716235));
#350 = DEFINITIONAL_REPRESENTATION('',(#351),#355);
#351 = LINE('',#352,#353);
#352 = CARTESIAN_POINT('',(6.28318530718,0.));
#353 = VECTOR('',#354,1.);
#354 = DIRECTION('',(0.,1.));
#355 = ( GEOMETRIC_REPRESENTATION_CONTEXT(2) 
PARAMETRIC_REPRESENTATION_CONTEXT() REPRESENTATION_CONTEXT('2D SPACE',''
  ) );
#356 = PCURVE('',#49,#357);
#357 = DEFINITIONAL_REPRESENTATION('',(#358),#361);
#358 = B_SPLINE_CURVE_WITH_KNOTS('',1,(#359,#360),.UNSPECIFIED.,.F.,.F.,
  (2,2),(0.,12.044768142634),.PIECEWISE_BEZIER_KNOTS.);
#359 = CARTESIAN_POINT('',(0.,0.));
#360 = CARTESIAN_POINT('',(0.,12.044768142634));
#361 = ( GEOMETRIC_REPRESENTATION_CONTEXT(2) 
PARAMETRIC_REPRESENTATION_CONTEXT() REPRESENTATION_CONTEXT('2D SPACE',''
  ) );
#362 = ORIENTED_EDGE('',*,*,#363,.F.);
#363 = EDGE_CURVE('',#24,#24,#364,.T.);
#364 = SURFACE_CURVE('',#365,(#381,#388),.PCURVE_S1.);
#365 = B_SPLINE_CURVE_WITH_KNOTS('',14,(#366,#367,#368,#369,#370,#371,
    #372,#373,#374,#375,#376,#377,#378,#379,#380),.UNSPECIFIED.,.T.,.F.,
  (1,14,14,1),(-6.28318530718,0.,6.28318530718,12.56637061436),
  .UNSPECIFIED.);
#366 = CARTESIAN_POINT('',(-7.299999999999,8.142304750445E-08,
    7.500000716235));
#367 = CARTESIAN_POINT('',(-7.300000318836,-1.498808740257E-02,
    7.368157897218));
#368 = CARTESIAN_POINT('',(-7.236696381346,-3.026698060302E-02,
    7.233757733108));
#369 = CARTESIAN_POINT('',(-7.106730556703,-4.209063707386E-02,
    7.129751418448));
#370 = CARTESIAN_POINT('',(-6.924771252583,-4.533544332062E-02,
    7.101208612395));
#371 = CARTESIAN_POINT('',(-6.748863632827,-3.882835558484E-02,
    7.158447944864));
#372 = CARTESIAN_POINT('',(-6.608615514853,-2.2676662638E-02,
    7.300525657744));
#373 = CARTESIAN_POINT('',(-6.551825394531,-1.215736939036E-07,
    7.499998929896));
#374 = CARTESIAN_POINT('',(-6.608614550099,2.267645006733E-02,
    7.69947247363));
#375 = CARTESIAN_POINT('',(-6.748861980846,3.882821935135E-02,
    7.841550855838));
#376 = CARTESIAN_POINT('',(-6.924769323815,4.533540243052E-02,
    7.898791028475));
#377 = CARTESIAN_POINT('',(-7.106728765937,4.209069503464E-02,
    7.870249091137));
#378 = CARTESIAN_POINT('',(-7.236695093641,3.026710907719E-02,
    7.766243397103));
#379 = CARTESIAN_POINT('',(-7.299999681162,1.498825025064E-02,
    7.631843535248));
#380 = CARTESIAN_POINT('',(-7.299999999999,8.142304750445E-08,
    7.500000716235));
#381 = PCURVE('',#49,#382);
#382 = DEFINITIONAL_REPRESENTATION('',(#383),#387);
#383 = LINE('',#384,#385);
#384 = CARTESIAN_POINT('',(0.,12.044768142634));
#385 = VECTOR('',#386,1.);
#386 = DIRECTION('',(1.,0.));
#387 = ( GEOMETRIC_REPRESENTATION_CONTEXT(2) 
PARAMETRIC_REPRESENTATION_CONTEXT() REPRESENTATION_CONTEXT('2D SPACE',''
  ) );
#388 = PCURVE('',#389,#394);
#389 = PLANE('',#390);
#390 = AXIS2_PLACEMENT_3D('',#391,#392,#393);
#391 = CARTESIAN_POINT('',(-7.000010214222,2.775135772902E-12,
    7.500000000024));
#392 = DIRECTION('',(6.860616488121E-14,-0.993600155313,0.112954554411)
  );
#393 = DIRECTION('',(0.,-0.112954554411,-0.993600155313));
#394 = DEFINITIONAL_REPRESENTATION('',(#395),#411);
#395 = B_SPLINE_CURVE_WITH_KNOTS('',14,(#396,#397,#398,#399,#400,#401,
    #402,#403,#404,#405,#406,#407,#408,#409,#410),.UNSPECIFIED.,.T.,.F.,
  (1,14,14,1),(-6.28318530718,0.,6.28318530718,12.56637061436),
  .UNSPECIFIED.);
#396 = CARTESIAN_POINT('',(-7.208241514789E-07,-0.299989785777));
#397 = CARTESIAN_POINT('',(0.132691306559,-0.299990104614));
#398 = CARTESIAN_POINT('',(0.267957151066,-0.236686167124));
#399 = CARTESIAN_POINT('',(0.372633377314,-0.106720342481));
#400 = CARTESIAN_POINT('',(0.401360029485,7.5238961639E-02));
#401 = CARTESIAN_POINT('',(0.343752014658,0.251146581395));
#402 = CARTESIAN_POINT('',(0.200759169794,0.391394699369));
#403 = CARTESIAN_POINT('',(1.077011964057E-06,0.448184819691));
#404 = CARTESIAN_POINT('',(-0.200757289068,0.391395664123));
#405 = CARTESIAN_POINT('',(-0.343750807599,0.251148233376));
#406 = CARTESIAN_POINT('',(-0.401359667987,7.5240890407E-02));
#407 = CARTESIAN_POINT('',(-0.372633890137,-0.106718551715));
#408 = CARTESIAN_POINT('',(-0.267958288508,-0.236684879419));
#409 = CARTESIAN_POINT('',(-0.132692748204,-0.29998946694));
#410 = CARTESIAN_POINT('',(-7.208241514789E-07,-0.299989785777));
#411 = ( GEOMETRIC_REPRESENTATION_CONTEXT(2) 
PARAMETRIC_REPRESENTATION_CONTEXT() REPRESENTATION_CONTEXT('2D SPACE',''
  ) );
#412 = ORIENTED_EDGE('',*,*,#21,.F.);
#413 = ORIENTED_EDGE('',*,*,#414,.T.);
#414 = EDGE_CURVE('',#22,#22,#415,.T.);
#415 = SURFACE_CURVE('',#416,(#432,#439),.PCURVE_S1.);
#416 = B_SPLINE_CURVE_WITH_KNOTS('',14,(#417,#418,#419,#420,#421,#422,
    #423,#424,#425,#426,#427,#428,#429,#430,#431),.UNSPECIFIED.,.T.,.F.,
  (1,14,14,1),(-6.28318530718,0.,6.28318530718,12.56637061436),
  .UNSPECIFIED.);
#417 = CARTESIAN_POINT('',(7.3,7.993605777301E-15,-2.22044604925E-15));
#418 = CARTESIAN_POINT('',(7.300000000001,1.498816882532E-02,
    -0.131842819016));
#419 = CARTESIAN_POINT('',(7.236695737488,3.02670448465E-02,
    -0.266242831996));
#420 = CARTESIAN_POINT('',(7.106729661338,4.209066603588E-02,
    -0.370248836352));
#421 = CARTESIAN_POINT('',(6.924770288166,4.533542291548E-02,
    -0.398791208031));
#422 = CARTESIAN_POINT('',(6.748862806884,3.882828740031E-02,
    -0.341551455501));
#423 = CARTESIAN_POINT('',(6.608615032419,2.267655644648E-02,
    -0.199473407932));
#424 = CARTESIAN_POINT('',(6.551825394583,-1.062010202002E-10,
    -7.825629033676E-12));
#425 = CARTESIAN_POINT('',(6.608615032436,-2.267655625391E-02,
    0.199473407946));
#426 = CARTESIAN_POINT('',(6.748862806859,-3.882828754325E-02,
    0.34155145549));
#427 = CARTESIAN_POINT('',(6.924770288189,-4.533542282973E-02,
    0.398791208038));
#428 = CARTESIAN_POINT('',(7.106729661324,-4.209066607624E-02,
    0.370248836349));
#429 = CARTESIAN_POINT('',(7.236695737493,-3.026704483249E-02,
    0.266242831997));
#430 = CARTESIAN_POINT('',(7.3,-1.498816882826E-02,0.131842819016));
#431 = CARTESIAN_POINT('',(7.3,7.993605777301E-15,-2.22044604925E-15));
#432 = PCURVE('',#49,#433);
#433 = DEFINITIONAL_REPRESENTATION('',(#434),#438);
#434 = LINE('',#435,#436);
#435 = CARTESIAN_POINT('',(0.,0.));
#436 = VECTOR('',#437,1.);
#437 = DIRECTION('',(1.,0.));
#438 = ( GEOMETRIC_REPRESENTATION_CONTEXT(2) 
PARAMETRIC_REPRESENTATION_CONTEXT() REPRESENTATION_CONTEXT('2D SPACE',''
  ) );
#439 = PCURVE('',#440,#445);
#440 = PLANE('',#441);
#441 = AXIS2_PLACEMENT_3D('',#442,#443,#444);
#442 = CARTESIAN_POINT('',(7.000010214222,5.138900189357E-15,
    -5.40483274404E-15));
#443 = DIRECTION('',(-8.176427058827E-15,0.993600155313,0.112954554411)
  );
#444 = DIRECTION('',(0.,-0.112954554411,0.993600155313));
#445 = DEFINITIONAL_REPRESENTATION('',(#446),#462);
#446 = B_SPLINE_CURVE_WITH_KNOTS('',14,(#447,#448,#449,#450,#451,#452,
    #453,#454,#455,#456,#457,#458,#459,#460,#461),.UNSPECIFIED.,.T.,.F.,
  (1,14,14,1),(-6.28318530718,0.,6.28318530718,12.56637061436),
  .UNSPECIFIED.);
#447 = CARTESIAN_POINT('',(2.841555116859E-15,0.299989785778));
#448 = CARTESIAN_POINT('',(-0.132692027382,0.299989785779));
#449 = CARTESIAN_POINT('',(-0.267957719786,0.236685523266));
#450 = CARTESIAN_POINT('',(-0.372633633731,0.106719447116));
#451 = CARTESIAN_POINT('',(-0.401359848731,-7.5239926056E-02));
#452 = CARTESIAN_POINT('',(-0.343751411135,-0.251147407338));
#453 = CARTESIAN_POINT('',(-0.200758229431,-0.391395181803));
#454 = CARTESIAN_POINT('',(4.226293396259E-12,-0.448184819639));
#455 = CARTESIAN_POINT('',(0.200758229423,-0.391395181786));
#456 = CARTESIAN_POINT('',(0.34375141114,-0.251147407363));
#457 = CARTESIAN_POINT('',(0.401359848729,-7.5239926033E-02));
#458 = CARTESIAN_POINT('',(0.372633633732,0.106719447102));
#459 = CARTESIAN_POINT('',(0.267957719786,0.236685523271));
#460 = CARTESIAN_POINT('',(0.132692027383,0.299989785778));
#461 = CARTESIAN_POINT('',(2.841555116859E-15,0.299989785778));
#462 = ( GEOMETRIC_REPRESENTATION_CONTEXT(2) 
PARAMETRIC_REPRESENTATION_CONTEXT() REPRESENTATION_CONTEXT('2D SPACE',''
  ) );
#463 = ADVANCED_FACE('',(#464),#440,.F.);
#464 = FACE_BOUND('',#465,.F.);
#465 = EDGE_LOOP('',(#466));
#466 = ORIENTED_EDGE('',*,*,#414,.T.);
#467 = ADVANCED_FACE('',(#468),#389,.T.);
#468 = FACE_BOUND('',#469,.T.);
#469 = EDGE_LOOP('',(#470));
#470 = ORIENTED_EDGE('',*,*,#363,.T.);
#471 = ( GEOMETRIC_REPRESENTATION_CONTEXT(3) 
GLOBAL_UNCERTAINTY_ASSIGNED_CONTEXT((#475)) GLOBAL_UNIT_ASSIGNED_CONTEXT
((#472,#473,#474)) REPRESENTATION_CONTEXT('Context #1',
  '3D Context with UNIT and UNCERTAINTY') );
#472 = ( LENGTH_UNIT() NAMED_UNIT(*) SI_UNIT(.MILLI.,.METRE.) );
#473 = ( NAMED_UNIT(*) PLANE_ANGLE_UNIT() SI_UNIT($,.RADIAN.) );
#474 = ( NAMED_UNIT(*) SI_UNIT($,.STERADIAN.) SOLID_ANGLE_UNIT() );
#475 = UNCERTAINTY_MEASURE_WITH_UNIT(LENGTH_MEASURE(1.E-07),#472,
  'distance_accuracy_value','confusion accuracy');
#476 = PRODUCT_RELATED_PRODUCT_CATEGORY('part',$,(#7));
ENDSEC;
END-ISO-10303-21;
