ISO-10303-21;
HEADER;
FILE_DESCRIPTION(('Open CASCADE Model'),'2;1');
FILE_NAME('Open CASCADE Shape Model','2026-09-13T10:33:49',('Author'),(
    'Open CASCADE'),'Open CASCADE STEP processor 7.9','Open CASCADE 7.9'
  ,'Unknown');
FILE_SCHEMA(('AUTOMOTIVE_DESIGN { 1 0 10303 214 1 1 1 1 }'));
ENDSEC;
DATA;
#1 = APPLICATION_PROTOCOL_DEFINITION('international standard',
  'automotive_design',2000,#2);
#2 = APPLICATION_CONTEXT(
  'core data for automotive mechanical design processes');
#3 = SHAPE_DEFINITION_REPRESENTATION(#4,#10);
#4 = PRODUCT_DEFINITION_SHAPE('','',#5);
#5 = PRODUCT_DEFINITION('design','',#6,#9);
#6 = PRODUCT_DEFINITION_FORMATION('','',#7);
#7 = PRODUCT('Open CASCADE STEP translator 7.9 6',
  'Open CASCADE STEP translator 7.9 6','',(#8));
#8 = PRODUCT_CONTEXT('',#2,'mechanical');
#9 = PRODUCT_DEFINITION_CONTEXT('part definition',#2,'design');
#10 = ADVANCED_BREP_SHAPE_REPRESENTATION('',(#11,#15),#439);
#11 = AXIS2_PLACEMENT_3D('',#12,#13,#14);
#12 = CARTESIAN_POINT('',(0.,0.,0.));
#13 = DIRECTION('',(0.,0.,1.));
#14 = DIRECTION('',(1.,0.,-0.));
#15 = MANIFOLD_SOLID_BREP('',#16);
#16 = CLOSED_SHELL('',(#17,#431,#435));
#17 = ADVANCED_FACE('',(#18),#47,.T.);
#18 = FACE_BOUND('',#19,.T.);
#19 = EDGE_LOOP('',(#20,#330,#380,#381));
#20 = ORIENTED_EDGE('',*,*,#21,.T.);
#21 = EDGE_CURVE('',#22,#24,#26,.T.);
#22 = VERTEX_POINT('',#23);
#23 = CARTESIAN_POINT('',(5.3,-8.933883412098E-15,-1.811259770771E-15));
#24 = VERTEX_POINT('',#25);
#25 = CARTESIAN_POINT('',(-5.299999999999,1.018067970394E-07,
    6.000000799588));
#26 = SEAM_CURVE('',#27,(#46,#324),.PCURVE_S1.);
#27 = B_SPLINE_CURVE_WITH_KNOTS('',9,(#28,#29,#30,#31,#32,#33,#34,#35,
    #36,#37,#38,#39,#40,#41,#42,#43,#44,#45),.UNSPECIFIED.,.F.,.F.,(10,8
    ,10),(0.,5.586287667356,11.172575334712),.UNSPECIFIED.);
#28 = CARTESIAN_POINT('',(5.3,-7.105427357601E-15,4.440892098501E-16));
#29 = CARTESIAN_POINT('',(5.300000011312,2.775071749052,0.333336866936)
  );
#30 = CARTESIAN_POINT('',(3.664742110515,5.550981863484,0.666655332282)
  );
#31 = CARTESIAN_POINT('',(0.399148109433,7.220003632906,1.000023040861)
  );
#32 = CARTESIAN_POINT('',(-3.651514551103,6.713288393034,1.333296748679)
  );
#33 = CARTESIAN_POINT('',(-6.713287690807,3.651514710242,1.666697803063)
  );
#34 = CARTESIAN_POINT('',(-7.220003515409,-0.39914775728,1.999974157009)
  );
#35 = CARTESIAN_POINT('',(-5.550981249145,-3.664742058358,2.333339784854
    ));
#36 = CARTESIAN_POINT('',(-2.775071749053,-5.3,2.66666304422));
#37 = CARTESIAN_POINT('',(2.775071749053,-5.3,3.333336955779));
#38 = CARTESIAN_POINT('',(5.550981876808,-3.664742085061,3.666655532179)
  );
#39 = CARTESIAN_POINT('',(7.22000366717,-0.399147810268,4.000025390528)
  );
#40 = CARTESIAN_POINT('',(6.713288450139,3.651514657384,4.333297583379)
  );
#41 = CARTESIAN_POINT('',(3.651514786383,6.713288380026,4.666703216209)
  );
#42 = CARTESIAN_POINT('',(-0.399147671623,7.220003674827,4.999975409059)
  );
#43 = CARTESIAN_POINT('',(-3.664741978408,5.550981947205,5.33334526741)
  );
#44 = CARTESIAN_POINT('',(-5.299999946703,2.77507185086,5.666663843809)
  );
#45 = CARTESIAN_POINT('',(-5.299999999999,1.018067969873E-07,
    6.000000799588));
#46 = PCURVE('',#47,#318);
#47 = B_SPLINE_SURFACE_WITH_KNOTS('',14,9,(
    (#48,#49,#50,#51,#52,#53,#54,#55,#56,#57,#58,#59,#60,#61,#62,#63,#64
      ,#65)
    ,(#66,#67,#68,#69,#70,#71,#72,#73,#74,#75,#76,#77,#78,#79,#80,#81
      ,#82,#83)
    ,(#84,#85,#86,#87,#88,#89,#90,#91,#92,#93,#94,#95,#96,#97,#98,#99
      ,#100,#101)
    ,(#102,#103,#104,#105,#106,#107,#108,#109,#110,#111,#112,#113,#114
      ,#115,#116,#117,#118,#119)
    ,(#120,#121,#122,#123,#124,#125,#126,#127,#128,#129,#130,#131,#132
      ,#133,#134,#135,#136,#137)
    ,(#138,#139,#140,#141,#142,#143,#144,#145,#146,#147,#148,#149,#150
      ,#151,#152,#153,#154,#155)
    ,(#156,#157,#158,#159,#160,#161,#162,#163,#164,#165,#166,#167,#168
      ,#169,#170,#171,#172,#173)
    ,(#174,#175,#176,#177,#178,#179,#180,#181,#182,#183,#184,#185,#186
      ,#187,#188,#189,#190,#191)
    ,(#192,#193,#194,#195,#196,#197,#198,#199,#200,#201,#202,#203,#204
      ,#205,#206,#207,#208,#209)
    ,(#210,#211,#212,#213,#214,#215,#216,#217,#218,#219,#220,#221,#222
      ,#223,#224,#225,#226,#227)
    ,(#228,#229,#230,#231,#232,#233,#234,#235,#236,#237,#238,#239,#240
      ,#241,#242,#243,#244,#245)
    ,(#246,#247,#248,#249,#250,#251,#252,#253,#254,#255,#256,#257,#258
      ,#259,#260,#261,#262,#263)
    ,(#264,#265,#266,#267,#268,#269,#270,#271,#272,#273,#274,#275,#276
      ,#277,#278,#279,#280,#281)
    ,(#282,#283,#284,#285,#286,#287,#288,#289,#290,#291,#292,#293,#294
      ,#295,#296,#297,#298,#299)
    ,(#300,#301,#302,#303,#304,#305,#306,#307,#308,#309,#310,#311,#312
      ,#313,#314,#315,#316,#317
  )),.UNSPECIFIED.,.T.,.F.,.F.,(1,14,14,1),(10,8,10),(-6.28318530718,0.,
    6.28318530718,12.56637061436),(0.,5.586287667356,11.172575334712),
  .UNSPECIFIED.);
#48 = CARTESIAN_POINT('',(5.3,-7.105427357601E-15,4.440892098501E-16));
#49 = CARTESIAN_POINT('',(5.300000011312,2.775071749052,0.333336866936)
  );
#50 = CARTESIAN_POINT('',(3.664742110515,5.550981863484,0.666655332282)
  );
#51 = CARTESIAN_POINT('',(0.399148109433,7.220003632906,1.000023040861)
  );
#52 = CARTESIAN_POINT('',(-3.651514551103,6.713288393034,1.333296748679)
  );
#53 = CARTESIAN_POINT('',(-6.713287690807,3.651514710242,1.666697803063)
  );
#54 = CARTESIAN_POINT('',(-7.220003515409,-0.39914775728,1.999974157009)
  );
#55 = CARTESIAN_POINT('',(-5.550981249145,-3.664742058358,2.333339784854
    ));
#56 = CARTESIAN_POINT('',(-2.775071749053,-5.3,2.66666304422));
#57 = CARTESIAN_POINT('',(2.775071749053,-5.3,3.333336955779));
#58 = CARTESIAN_POINT('',(5.550981876808,-3.664742085061,3.666655532179)
  );
#59 = CARTESIAN_POINT('',(7.22000366717,-0.399147810268,4.000025390528)
  );
#60 = CARTESIAN_POINT('',(6.713288450139,3.651514657384,4.333297583379)
  );
#61 = CARTESIAN_POINT('',(3.651514786383,6.713288380026,4.666703216209)
  );
#62 = CARTESIAN_POINT('',(-0.399147671623,7.220003674827,4.999975409059)
  );
#63 = CARTESIAN_POINT('',(-3.664741978408,5.550981947205,5.33334526741)
  );
#64 = CARTESIAN_POINT('',(-5.299999946703,2.77507185086,5.666663843809)
  );
#65 = CARTESIAN_POINT('',(-5.299999999999,1.018067969873E-07,
    6.000000799588));
#66 = CARTESIAN_POINT('',(5.299999999998,1.675957183326E-02,
    -0.131629369378));
#67 = CARTESIAN_POINT('',(5.29122640786,2.791831452337,0.201707509253));
#68 = CARTESIAN_POINT('',(3.647198707069,5.562557017859,0.535025919702)
  );
#69 = CARTESIAN_POINT('',(0.376269942497,7.221319345644,0.868393708897)
  );
#70 = CARTESIAN_POINT('',(-3.672653808623,6.701651019572,1.201667328223)
  );
#71 = CARTESIAN_POINT('',(-6.724926947754,3.630377044767,1.535068374261)
  );
#72 = CARTESIAN_POINT('',(-7.218688732773,-0.422024796236,1.86834480248)
  );
#73 = CARTESIAN_POINT('',(-5.539406707955,-3.682283419665,2.20171034306)
  );
#74 = CARTESIAN_POINT('',(-2.758312269092,-5.308773603463,2.535033663141
    ));
#75 = CARTESIAN_POINT('',(2.791831412757,-5.291226396542,3.20170759811)
  );
#76 = CARTESIAN_POINT('',(5.562556786482,-3.647198680867,3.535026125378)
  );
#77 = CARTESIAN_POINT('',(7.221318932093,-0.376269641424,3.868396073751)
  );
#78 = CARTESIAN_POINT('',(6.701649638211,3.672653918088,4.201668187748)
  );
#79 = CARTESIAN_POINT('',(3.630375773567,6.724927641254,4.535073821053)
  );
#80 = CARTESIAN_POINT('',(-0.422025868611,7.218688896941,4.868346091941)
  );
#81 = CARTESIAN_POINT('',(-3.682285628756,5.539407410495,5.201715860781)
  );
#82 = CARTESIAN_POINT('',(-5.308773906695,2.758312373882,5.535034486093)
  );
#83 = CARTESIAN_POINT('',(-5.300000356518,-1.675947002705E-02,
    5.868371430211));
#84 = CARTESIAN_POINT('',(5.236695737502,3.384420859572E-02,
    -0.265811792698));
#85 = CARTESIAN_POINT('',(5.218961776976,2.775828091551,
    6.752435352357E-02));
#86 = CARTESIAN_POINT('',(3.585477655157,5.508179791977,0.400824874363)
  );
#87 = CARTESIAN_POINT('',(0.348055479855,7.136528645199,0.734404144813)
  );
#88 = CARTESIAN_POINT('',(-3.650793601119,6.60982532489,1.06719305232));
#89 = CARTESIAN_POINT('',(-6.656853033066,3.565192632264,1.401438410997)
  );
#90 = CARTESIAN_POINT('',(-7.131296779855,-0.440489225988,1.733853355862
    ));
#91 = CARTESIAN_POINT('',(-5.461466396935,-3.656444715721,2.067820003509
    ));
#92 = CARTESIAN_POINT('',(-2.708139594134,-5.254429706895,2.400851990979
    ));
#93 = CARTESIAN_POINT('',(2.775828011332,-5.218961768071,3.067524423594)
  );
#94 = CARTESIAN_POINT('',(5.508176929465,-3.585474964206,3.400846009742)
  );
#95 = CARTESIAN_POINT('',(7.136550615721,-0.348080408447,3.73420835457)
  );
#96 = CARTESIAN_POINT('',(6.609787919315,3.650831825769,4.067493269715)
  );
#97 = CARTESIAN_POINT('',(3.565254897339,6.656782401455,4.40088367054));
#98 = CARTESIAN_POINT('',(-0.440528020526,7.131336956535,4.73416890298)
  );
#99 = CARTESIAN_POINT('',(-3.656414996345,5.461429585209,5.067530884637)
  );
#100 = CARTESIAN_POINT('',(-5.254430384726,2.708139680443,5.400852669209
    ));
#101 = CARTESIAN_POINT('',(-5.236696457443,-3.384412826846E-02,
    5.734188838165));
#102 = CARTESIAN_POINT('',(5.106729661298,4.706522519921E-02,
    -0.369649414399));
#103 = CARTESIAN_POINT('',(5.082184023648,2.720539648817,
    -3.631480026192E-02));
#104 = CARTESIAN_POINT('',(3.482182132716,5.380244195472,0.297108649313)
  );
#105 = CARTESIAN_POINT('',(0.321342235507,6.959293519917,0.629458199389)
  );
#106 = CARTESIAN_POINT('',(-3.576726820155,6.434794467874,0.965035443635
    ));
#107 = CARTESIAN_POINT('',(-6.499211716827,3.458295029491,1.29448084995)
  );
#108 = CARTESIAN_POINT('',(-6.95193127409,-0.449084817597,1.63177431818)
  );
#109 = CARTESIAN_POINT('',(-5.314955041921,-3.580303959231,
    1.962348697504));
#110 = CARTESIAN_POINT('',(-2.626409088024,-5.131275303095,
    2.297015940007));
#111 = CARTESIAN_POINT('',(2.720539538411,-5.082184019612,2.96368523128)
  );
#112 = CARTESIAN_POINT('',(5.380247101142,-3.482194283511,3.297013214303
    ));
#113 = CARTESIAN_POINT('',(6.959259419187,-0.32122745335,3.630359702816)
  );
#114 = CARTESIAN_POINT('',(6.434840423615,3.576553122435,3.963671216954)
  );
#115 = CARTESIAN_POINT('',(3.458199043461,6.499536295727,4.297030093215)
  );
#116 = CARTESIAN_POINT('',(-0.449036144359,6.951748911925,4.630342046002
    ));
#117 = CARTESIAN_POINT('',(-3.58035831839,5.315125571126,4.963688032686)
  );
#118 = CARTESIAN_POINT('',(-5.131276285614,2.626409132699,5.297016289614
    ));
#119 = CARTESIAN_POINT('',(-5.106730662522,-4.70651889885E-02,
    5.630350870071));
#120 = CARTESIAN_POINT('',(4.924770288246,5.069346932032E-02,
    -0.398145576817));
#121 = CARTESIAN_POINT('',(4.897985288827,2.63072581446,
    -6.481306179004E-02));
#122 = CARTESIAN_POINT('',(3.351085822244,5.195993939732,0.268250430784)
  );
#123 = CARTESIAN_POINT('',(0.29879205749,6.716680108378,0.604425481359)
  );
#124 = CARTESIAN_POINT('',(-3.460885563506,6.206995919995,0.931292635451
    ));
#125 = CARTESIAN_POINT('',(-6.279137502001,3.331424795042,1.2758004894)
  );
#126 = CARTESIAN_POINT('',(-6.709099480177,-0.438734217648,
    1.597761717129));
#127 = CARTESIAN_POINT('',(-5.126621448437,-3.45839483494,1.93901170662)
  );
#128 = CARTESIAN_POINT('',(-2.52933875402,-4.951555284649,2.268521929784
    ));
#129 = CARTESIAN_POINT('',(2.63072569267,-4.897985291594,2.93518691641)
  );
#130 = CARTESIAN_POINT('',(5.195985467022,-3.351051033608,3.268523668001
    ));
#131 = CARTESIAN_POINT('',(6.716752887121,-0.299120174131,3.601848441229
    ));
#132 = CARTESIAN_POINT('',(6.206879403673,3.461382593082,3.935196320228)
  );
#133 = CARTESIAN_POINT('',(3.331631353826,6.278209526639,4.268512166584)
  );
#134 = CARTESIAN_POINT('',(-0.43885627596,6.709621355127,4.601860525386)
  );
#135 = CARTESIAN_POINT('',(-3.45829061127,5.126134185956,4.935184749203)
  );
#136 = CARTESIAN_POINT('',(-4.951556375598,2.529338737241,5.26852180125)
  );
#137 = CARTESIAN_POINT('',(-4.924771366567,-5.069349483042E-02,
    5.601854222672));
#138 = CARTESIAN_POINT('',(4.748862806757,4.341727665385E-02,
    -0.340998493764));
#139 = CARTESIAN_POINT('',(4.72651041424,2.526654274024,
    -7.668162092011E-03));
#140 = CARTESIAN_POINT('',(3.240329545886,4.996852911651,0.326227706886)
  );
#141 = CARTESIAN_POINT('',(0.304614162149,6.463189580657,0.653796872004)
  );
#142 = CARTESIAN_POINT('',(-3.318513518188,5.975616713556,1.000222099814
    ));
#143 = CARTESIAN_POINT('',(-6.031967592735,3.210197485583,1.310976768246
    ));
#144 = CARTESIAN_POINT('',(-6.45654920885,-0.420092248854,1.66727251926)
  );
#145 = CARTESIAN_POINT('',(-4.935539970409,-3.329660919694,
    1.984630236434));
#146 = CARTESIAN_POINT('',(-2.439819621152,-4.771215189955,
    2.325671250533));
#147 = CARTESIAN_POINT('',(2.526654174467,-4.726510423993,2.992331762206
    ));
#148 = CARTESIAN_POINT('',(4.996855596313,-3.240399581934,3.325677628483
    ));
#149 = CARTESIAN_POINT('',(6.463158276461,-0.303954247504,3.658979867588
    ));
#150 = CARTESIAN_POINT('',(5.975658868458,3.317513183776,3.992365440083)
  );
#151 = CARTESIAN_POINT('',(3.210109628679,6.033834155969,4.325636770745)
  );
#152 = CARTESIAN_POINT('',(-0.420047837694,6.455498818367,4.65902274178)
  );
#153 = CARTESIAN_POINT('',(-3.329710554744,4.936519635615,4.992324525307
    ));
#154 = CARTESIAN_POINT('',(-4.771216159784,2.43981954422,5.325670639814)
  );
#155 = CARTESIAN_POINT('',(-4.748863730446,-4.341736191279E-02,
    5.659000836881));
#156 = CARTESIAN_POINT('',(4.608615032583,2.535662497219E-02,
    -0.19915046636));
#157 = CARTESIAN_POINT('',(4.595038907093,2.443659614312,0.13417839282)
  );
#158 = CARTESIAN_POINT('',(3.157319737113,4.855538072552,0.466710208332)
  );
#159 = CARTESIAN_POINT('',(0.303636780035,6.295658907253,0.808554881447)
  );
#160 = CARTESIAN_POINT('',(-3.219577176866,5.835875650763,1.122510234471
    ));
#161 = CARTESIAN_POINT('',(-5.875273621512,3.155168345591,1.489352109074
    ));
#162 = CARTESIAN_POINT('',(-6.29095809553,-0.375675127033,1.788577394492
    ));
#163 = CARTESIAN_POINT('',(-4.82221693693,-3.211539974075,2.145659234304
    ));
#164 = CARTESIAN_POINT('',(-2.392946301358,-4.622191143286,
    2.467520787729));
#165 = CARTESIAN_POINT('',(2.44365955126,-4.59503892126,3.134178279223)
  );
#166 = CARTESIAN_POINT('',(4.855544083264,-3.157215323374,3.46753029913)
  );
#167 = CARTESIAN_POINT('',(6.295598627184,-0.304621948737,3.800817321868
    ));
#168 = CARTESIAN_POINT('',(5.835963721366,3.221069153273,4.134228276803)
  );
#169 = CARTESIAN_POINT('',(3.154998359393,5.872487473254,4.467469666444)
  );
#170 = CARTESIAN_POINT('',(-0.375582624191,6.292524615196,4.800880865789
    ));
#171 = CARTESIAN_POINT('',(-3.211631330351,4.820753781355,5.134167608175
    ));
#172 = CARTESIAN_POINT('',(-4.622191749765,2.392946171975,5.46751978197)
  );
#173 = CARTESIAN_POINT('',(-4.608615571861,-2.53567577412E-02,
    5.800848490495));
#174 = CARTESIAN_POINT('',(4.551825394409,-7.004377633457E-11,
    -1.057853804554E-11));
#175 = CARTESIAN_POINT('',(4.551825378454,2.377224985617,0.333327917038)
  );
#176 = CARTESIAN_POINT('',(3.149914441518,4.754195081384,0.667622307373)
  );
#177 = CARTESIAN_POINT('',(0.352084397998,6.182080752743,0.991118162087)
  );
#178 = CARTESIAN_POINT('',(-3.122795474443,5.746395192332,1.346793230026
    ));
#179 = CARTESIAN_POINT('',(-5.742894715685,3.120499038964,1.641598477736
    ));
#180 = CARTESIAN_POINT('',(-6.184081353997,-0.350626932148,
    2.014113622588));
#181 = CARTESIAN_POINT('',(-4.752501412819,-3.150343502555,2.32018770185
    ));
#182 = CARTESIAN_POINT('',(-2.377224987514,-4.551825393327,
    2.666672218779));
#183 = CARTESIAN_POINT('',(2.377224987464,-4.551825396212,3.333327781528
    ));
#184 = CARTESIAN_POINT('',(4.754172948137,-3.150033940026,3.666683732341
    ));
#185 = CARTESIAN_POINT('',(6.182289152683,-0.350958491092,3.999961096924
    ));
#186 = CARTESIAN_POINT('',(5.746079272384,3.121088699035,4.333388130587)
  );
#187 = CARTESIAN_POINT('',(3.12108846953,5.746079352712,4.666610675216)
  );
#188 = CARTESIAN_POINT('',(-0.350958683728,6.182289162638,5.000037707236
    ));
#189 = CARTESIAN_POINT('',(-3.150034113268,4.754172836631,5.333315074376
    ));
#190 = CARTESIAN_POINT('',(-4.551825475753,2.377224836994,5.666671022994
    ));
#191 = CARTESIAN_POINT('',(-4.551825394545,-1.520804536054E-07,
    5.999998805453));
#192 = CARTESIAN_POINT('',(4.608615032588,-2.535662484487E-02,
    0.19915046638));
#193 = CARTESIAN_POINT('',(4.622191126812,2.392945957617,0.532479289378)
  );
#194 = CARTESIAN_POINT('',(3.211735166588,4.820720680876,0.865011880656)
  );
#195 = CARTESIAN_POINT('',(0.374597952772,6.292828064856,1.206849985427)
  );
#196 = CARTESIAN_POINT('',(-3.153507245959,5.872022807644,1.520819981343
    ));
#197 = CARTESIAN_POINT('',(-5.838747232258,3.221929347118,1.887637067645
    ));
#198 = CARTESIAN_POINT('',(-6.294032498723,-0.305109051622,
    2.186887370157));
#199 = CARTESIAN_POINT('',(-4.85700550628,-3.156765215887,2.543951908204
    ));
#200 = CARTESIAN_POINT('',(-2.443659267125,-4.595038923849,
    2.865821756624));
#201 = CARTESIAN_POINT('',(2.39294601731,-4.622191140642,3.532479175867)
  );
#202 = CARTESIAN_POINT('',(4.820753289185,-3.211630833739,3.865831347058
    ));
#203 = CARTESIAN_POINT('',(6.292523888748,-0.375582396728,4.199118093305
    ));
#204 = CARTESIAN_POINT('',(5.87248665774,3.154998105368,4.532529288604)
  );
#205 = CARTESIAN_POINT('',(3.22106862871,5.835963133575,4.865770681268)
  );
#206 = CARTESIAN_POINT('',(-0.304622109914,6.295597842208,5.199181635097
    ));
#207 = CARTESIAN_POINT('',(-3.157215080268,4.855543419026,5.532468657103
    ));
#208 = CARTESIAN_POINT('',(-4.595038451549,2.443659128002,5.865820678368
    ));
#209 = CARTESIAN_POINT('',(-4.608614493069,2.535649208482E-02,
    6.199149423245));
#210 = CARTESIAN_POINT('',(4.748862806749,-4.341727674914E-02,
    0.340998493749));
#211 = CARTESIAN_POINT('',(4.771215181705,2.439819050841,0.67432876582)
  );
#212 = CARTESIAN_POINT('',(3.329639871715,4.936547360292,1.008224170004)
  );
#213 = CARTESIAN_POINT('',(0.420706657779,6.455222146601,1.335800689016)
  );
#214 = CARTESIAN_POINT('',(-3.211108131919,6.034245194395,1.682208711025
    ));
#215 = CARTESIAN_POINT('',(-5.973793760792,3.316734105334,1.992993913684
    ));
#216 = CARTESIAN_POINT('',(-6.464206037033,-0.303521250104,2.34925826263
    ));
#217 = CARTESIAN_POINT('',(-4.995876270299,-3.24081110141,2.666638016926
    ));
#218 = CARTESIAN_POINT('',(-2.526653706282,-4.726510422085,
    3.007668297687));
#219 = CARTESIAN_POINT('',(2.43981915291,-4.771215191944,3.674328689997)
  );
#220 = CARTESIAN_POINT('',(4.936518748636,-3.329709814679,4.007674806904
    ));
#221 = CARTESIAN_POINT('',(6.455497576639,-0.420047651457,4.340976586434
    ));
#222 = CARTESIAN_POINT('',(6.033832971102,3.210109142802,4.674362562323)
  );
#223 = CARTESIAN_POINT('',(3.317512434,5.975657766432,5.007633888541));
#224 = CARTESIAN_POINT('',(-0.303954271998,6.463157050189,5.341019463782
    ));
#225 = CARTESIAN_POINT('',(-3.240399037983,4.996854582544,5.674321702221
    ));
#226 = CARTESIAN_POINT('',(-4.726509544691,2.52665361494,6.007667567989)
  );
#227 = CARTESIAN_POINT('',(-4.748861883245,4.341719147692E-02,
    6.340997824373));
#228 = CARTESIAN_POINT('',(4.924770288253,-5.069346926242E-02,
    0.398145576826));
#229 = CARTESIAN_POINT('',(4.951555281099,2.529338073163,0.731478020464)
  );
#230 = CARTESIAN_POINT('',(3.458324543985,5.126111728693,1.064542515551)
  );
#231 = CARTESIAN_POINT('',(0.438528834793,6.709813948293,1.400710113935)
  );
#232 = CARTESIAN_POINT('',(-3.331134822764,6.277907884343,1.727593635298
    ));
#233 = CARTESIAN_POINT('',(-6.207803781915,3.461931398362,2.072074208314
    ));
#234 = CARTESIAN_POINT('',(-6.716230823464,-0.299435087046,
    2.394062791163));
#235 = CARTESIAN_POINT('',(-5.196470409824,-3.350765982219,
    2.735293958766));
#236 = CARTESIAN_POINT('',(-2.630725132049,-4.897985292735,
    3.064813154781));
#237 = CARTESIAN_POINT('',(2.529338193431,-4.951555283442,3.731477998764
    ));
#238 = CARTESIAN_POINT('',(5.126133060978,-3.458289846675,4.064815049243
    ));
#239 = CARTESIAN_POINT('',(6.709619877813,-0.4388561578,4.398139275802)
  );
#240 = CARTESIAN_POINT('',(6.278208119506,3.331630612606,4.731487631083)
  );
#241 = CARTESIAN_POINT('',(3.46138181492,6.206878053483,5.064803480864)
  );
#242 = CARTESIAN_POINT('',(-0.299120139534,6.716751389333,5.398151357547
    ));
#243 = CARTESIAN_POINT('',(-3.351050312706,5.195984312337,5.731476131578
    ));
#244 = CARTESIAN_POINT('',(-4.897984226956,2.630725096431,6.064812883326
    ));
#245 = CARTESIAN_POINT('',(-4.92476920982,5.069344376273E-02,
    6.398145376329));
#246 = CARTESIAN_POINT('',(5.106729661294,-4.706522522696E-02,
    0.369649414395));
#247 = CARTESIAN_POINT('',(5.131275307457,2.626408462855,0.70298396309)
  );
#248 = CARTESIAN_POINT('',(3.580345540956,5.315131896703,1.036407457275)
  );
#249 = CARTESIAN_POINT('',(0.449150571522,6.951671034928,1.368759294574)
  );
#250 = CARTESIAN_POINT('',(-3.458371550418,6.499645202098,1.70433080714)
  );
#251 = CARTESIAN_POINT('',(-6.434515474491,3.576336560017,2.03378701341)
  );
#252 = CARTESIAN_POINT('',(-6.959439950945,-0.321111278729,
    2.371069125192));
#253 = CARTESIAN_POINT('',(-5.380076045989,-3.482310904448,
    2.701651607678));
#254 = CARTESIAN_POINT('',(-2.720539024389,-5.082184019075,
    3.036314834265));
#255 = CARTESIAN_POINT('',(2.626408573986,-5.131275303673,3.702983994575
    ));
#256 = CARTESIAN_POINT('',(5.315124503263,-3.580357661405,4.036312252364
    ));
#257 = CARTESIAN_POINT('',(6.951747546193,-0.449036117767,4.369658237504
    ));
#258 = CARTESIAN_POINT('',(6.499535066806,3.458198316246,4.702970192323)
  );
#259 = CARTESIAN_POINT('',(3.57655247435,6.434839133925,5.036329066538)
  );
#260 = CARTESIAN_POINT('',(-0.321227320829,6.959258066626,5.369640582163
    ));
#261 = CARTESIAN_POINT('',(-3.482193554913,5.380246080588,5.702987070024
    ));
#262 = CARTESIAN_POINT('',(-5.082182999181,2.720539052799,6.036315053101
    ));
#263 = CARTESIAN_POINT('',(-5.106728660123,4.70652614311E-02,
    6.369649698852));
#264 = CARTESIAN_POINT('',(5.236695737504,-3.384420858592E-02,
    0.265811792699));
#265 = CARTESIAN_POINT('',(5.254429715703,2.708139142924,0.59914789165)
  );
#266 = CARTESIAN_POINT('',(3.6564172541,5.461424905904,0.932448771013));
#267 = CARTESIAN_POINT('',(0.440503301726,7.131367170484,1.266026290711)
  );
#268 = CARTESIAN_POINT('',(-3.565216331707,6.656729980246,1.59881879612)
  );
#269 = CARTESIAN_POINT('',(-6.609857139327,3.650919835665,1.933058592989
    ));
#270 = CARTESIAN_POINT('',(-7.136509741639,-0.348133946538,
    2.265478930742));
#271 = CARTESIAN_POINT('',(-5.508212816843,-3.585431001992,
    2.599441968777));
#272 = CARTESIAN_POINT('',(-2.77582764008,-5.218961768258,2.932475623638
    ));
#273 = CARTESIAN_POINT('',(2.708139222889,-5.254429706693,3.599147961742
    ));
#274 = CARTESIAN_POINT('',(5.461428774905,-3.656414583999,3.932469746039
    ));
#275 = CARTESIAN_POINT('',(7.131335968118,-0.440528073013,4.265831728203
    ));
#276 = CARTESIAN_POINT('',(6.656781544935,3.565254293377,4.59911695995)
  );
#277 = CARTESIAN_POINT('',(3.650831429636,6.609786956131,4.93250736149)
  );
#278 = CARTESIAN_POINT('',(-0.348080244893,7.136549636738,5.265792276123
    ));
#279 = CARTESIAN_POINT('',(-3.585474382183,5.508176231253,5.599154621155
    ));
#280 = CARTESIAN_POINT('',(-5.218961006194,2.775827714192,5.932476207307
    ));
#281 = CARTESIAN_POINT('',(-5.236695017542,3.384428891535E-02,
    6.265812423565));
#282 = CARTESIAN_POINT('',(5.299999999998,-1.675957183538E-02,
    0.131629369378));
#283 = CARTESIAN_POINT('',(5.3087736148,2.758312045751,0.464966224619));
#284 = CARTESIAN_POINT('',(3.682285513837,5.539406709169,0.798284744859)
  );
#285 = CARTESIAN_POINT('',(0.422026276668,7.218687920049,1.131652372824)
  );
#286 = CARTESIAN_POINT('',(-3.630375294067,6.724925766641,1.464926169144
    ));
#287 = CARTESIAN_POINT('',(-6.701648433328,3.672652375582,1.798327231852
    ));
#288 = CARTESIAN_POINT('',(-7.221318298439,-0.376270718222,
    2.131603511544));
#289 = CARTESIAN_POINT('',(-5.562555790151,-3.64720069712,2.464969226653
    ));
#290 = CARTESIAN_POINT('',(-2.791831229053,-5.291226396502,
    2.798292425288));
#291 = CARTESIAN_POINT('',(2.758312085386,-5.308773603506,3.464966313471
    ));
#292 = CARTESIAN_POINT('',(5.539406967052,-3.68228548902,3.798284938859)
  );
#293 = CARTESIAN_POINT('',(7.218688402311,-0.422025979661,4.13165470757)
  );
#294 = CARTESIAN_POINT('',(6.72492726207,3.630375397516,4.464926978615)
  );
#295 = CARTESIAN_POINT('',(3.672653799143,6.701649117926,4.798332611767)
  );
#296 = CARTESIAN_POINT('',(-0.37626947457,7.221318453336,5.131604725882)
  );
#297 = CARTESIAN_POINT('',(-3.647198328103,5.562556483611,5.464974674192
    ));
#298 = CARTESIAN_POINT('',(-5.291225986695,2.791831327926,5.798293201476
    ));
#299 = CARTESIAN_POINT('',(-5.29999964348,1.675967364091E-02,
    6.131630168965));
#300 = CARTESIAN_POINT('',(5.3,-7.105427357601E-15,4.440892098501E-16));
#301 = CARTESIAN_POINT('',(5.300000011312,2.775071749052,0.333336866936)
  );
#302 = CARTESIAN_POINT('',(3.664742110515,5.550981863484,0.666655332282)
  );
#303 = CARTESIAN_POINT('',(0.399148109433,7.220003632906,1.000023040861)
  );
#304 = CARTESIAN_POINT('',(-3.651514551103,6.713288393034,1.333296748679
    ));
#305 = CARTESIAN_POINT('',(-6.713287690807,3.651514710242,1.666697803063
    ));
#306 = CARTESIAN_POINT('',(-7.220003515409,-0.39914775728,1.999974157009
    ));
#307 = CARTESIAN_POINT('',(-5.550981249145,-3.664742058358,
    2.333339784854));
#308 = CARTESIAN_POINT('',(-2.775071749053,-5.3,2.66666304422));
#309 = CARTESIAN_POINT('',(2.775071749053,-5.3,3.333336955779));
#310 = CARTESIAN_POINT('',(5.550981876808,-3.664742085061,3.666655532179
    ));
#311 = CARTESIAN_POINT('',(7.22000366717,-0.399147810268,4.000025390528)
  );
#312 = CARTESIAN_POINT('',(6.713288450139,3.651514657384,4.333297583379)
  );
#313 = CARTESIAN_POINT('',(3.651514786383,6.713288380026,4.666703216209)
  );
#314 = CARTESIAN_POINT('',(-0.399147671623,7.220003674827,4.999975409059
    ));
#315 = CARTESIAN_POINT('',(-3.664741978408,5.550981947205,5.33334526741)
  );
#316 = CARTESIAN_POINT('',(-5.299999946703,2.77507185086,5.666663843809)
  );
#317 = CARTESIAN_POINT('',(-5.299999999999,1.018067969873E-07,
    6.000000799588));
#318 = DEFINITIONAL_REPRESENTATION('',(#319),#323);
#319 = LINE('',#320,#321);
#320 = CARTESIAN_POINT('',(6.28318530718,0.));
#321 = VECTOR('',#322,1.);
#322 = DIRECTION('',(0.,1.));
#323 = ( GEOMETRIC_REPRESENTATION_CONTEXT(2) 
PARAMETRIC_REPRESENTATION_CONTEXT() REPRESENTATION_CONTEXT('2D SPACE',''
  ) );
#324 = PCURVE('',#47,#325);
#325 = DEFINITIONAL_REPRESENTATION('',(#326),#329);
#326 = B_SPLINE_CURVE_WITH_KNOTS('',1,(#327,#328),.UNSPECIFIED.,.F.,.F.,
  (2,2),(0.,11.172575334712),.PIECEWISE_BEZIER_KNOTS.);
#327 = CARTESIAN_POINT('',(0.,0.));
#328 = CARTESIAN_POINT('',(0.,11.172575334712));
#329 = ( GEOMETRIC_REPRESENTATION_CONTEXT(2) 
PARAMETRIC_REPRESENTATION_CONTEXT() REPRESENTATION_CONTEXT('2D SPACE',''
  ) );
#330 = ORIENTED_EDGE('',*,*,#331,.F.);
#331 = EDGE_CURVE('',#24,#24,#332,.T.);
#332 = SURFACE_CURVE('',#333,(#349,#356),.PCURVE_S1.);
#333 = B_SPLINE_CURVE_WITH_KNOTS('',14,(#334,#335,#336,#337,#338,#339,
    #340,#341,#342,#343,#344,#345,#346,#347,#348),.UNSPECIFIED.,.T.,.F.,
  (1,14,14,1),(-6.28318530718,0.,6.28318530718,12.56637061436),
  .UNSPECIFIED.);
#334 = CARTESIAN_POINT('',(-5.299999999999,1.018067969873E-07,
    6.000000799588));
#335 = CARTESIAN_POINT('',(-5.300000356518,-1.675947002705E-02,
    5.868371430211));
#336 = CARTESIAN_POINT('',(-5.236696457443,-3.384412826846E-02,
    5.734188838165));
#337 = CARTESIAN_POINT('',(-5.106730662522,-4.70651889885E-02,
    5.630350870071));
#338 = CARTESIAN_POINT('',(-4.924771366567,-5.069349483042E-02,
    5.601854222672));
#339 = CARTESIAN_POINT('',(-4.748863730446,-4.341736191279E-02,
    5.659000836881));
#340 = CARTESIAN_POINT('',(-4.608615571861,-2.53567577412E-02,
    5.800848490495));
#341 = CARTESIAN_POINT('',(-4.551825394545,-1.520804536054E-07,
    5.999998805453));
#342 = CARTESIAN_POINT('',(-4.608614493069,2.535649208482E-02,
    6.199149423245));
#343 = CARTESIAN_POINT('',(-4.748861883245,4.341719147692E-02,
    6.340997824373));
#344 = CARTESIAN_POINT('',(-4.92476920982,5.069344376273E-02,
    6.398145376329));
#345 = CARTESIAN_POINT('',(-5.106728660123,4.70652614311E-02,
    6.369649698852));
#346 = CARTESIAN_POINT('',(-5.236695017542,3.384428891535E-02,
    6.265812423565));
#347 = CARTESIAN_POINT('',(-5.29999964348,1.675967364091E-02,
    6.131630168965));
#348 = CARTESIAN_POINT('',(-5.299999999999,1.018067969873E-07,
    6.000000799588));
#349 = PCURVE('',#47,#350);
#350 = DEFINITIONAL_REPRESENTATION('',(#351),#355);
#351 = LINE('',#352,#353);
#352 = CARTESIAN_POINT('',(0.,11.172575334712));
#353 = VECTOR('',#354,1.);
#354 = DIRECTION('',(1.,0.));
#355 = ( GEOMETRIC_REPRESENTATION_CONTEXT(2) 
PARAMETRIC_REPRESENTATION_CONTEXT() REPRESENTATION_CONTEXT('2D SPACE',''
  ) );
#356 = PCURVE('',#357,#362);
#357 = PLANE('',#358);
#358 = AXIS2_PLACEMENT_3D('',#359,#360,#361);
#359 = CARTESIAN_POINT('',(-5.000010214222,3.463812368098E-12,
    6.000000000027));
#360 = DIRECTION('',(-1.728321350561E-13,-0.991991545946,0.126304286434)
  );
#361 = DIRECTION('',(0.,-0.126304286434,-0.991991545946));
#362 = DEFINITIONAL_REPRESENTATION('',(#363),#379);
#363 = B_SPLINE_CURVE_WITH_KNOTS('',14,(#364,#365,#366,#367,#368,#369,
    #370,#371,#372,#373,#374,#375,#376,#377,#378),.UNSPECIFIED.,.T.,.F.,
  (1,14,14,1),(-6.28318530718,0.,6.28318530718,12.56637061436),
  .UNSPECIFIED.);
#364 = CARTESIAN_POINT('',(-8.060159499834E-07,-0.299989785777));
#365 = CARTESIAN_POINT('',(0.132691221366,-0.299990142296));
#366 = CARTESIAN_POINT('',(0.267957083857,-0.236686243221));
#367 = CARTESIAN_POINT('',(0.372633346994,-0.1067204483));
#368 = CARTESIAN_POINT('',(0.401360050882,7.5238847655E-02));
#369 = CARTESIAN_POINT('',(0.343752085931,0.251146483776));
#370 = CARTESIAN_POINT('',(0.200759281011,0.391394642361));
#371 = CARTESIAN_POINT('',(1.204216159678E-06,0.448184819677));
#372 = CARTESIAN_POINT('',(-0.200757177851,0.391395721153));
#373 = CARTESIAN_POINT('',(-0.343750736325,0.251148330977));
#374 = CARTESIAN_POINT('',(-0.40135964659,7.5241004402E-02));
#375 = CARTESIAN_POINT('',(-0.372633920456,-0.106718445901));
#376 = CARTESIAN_POINT('',(-0.267958355718,-0.23668480332));
#377 = CARTESIAN_POINT('',(-0.132692833398,-0.299989429258));
#378 = CARTESIAN_POINT('',(-8.060159499834E-07,-0.299989785777));
#379 = ( GEOMETRIC_REPRESENTATION_CONTEXT(2) 
PARAMETRIC_REPRESENTATION_CONTEXT() REPRESENTATION_CONTEXT('2D SPACE',''
  ) );
#380 = ORIENTED_EDGE('',*,*,#21,.F.);
#381 = ORIENTED_EDGE('',*,*,#382,.T.);
#382 = EDGE_CURVE('',#22,#22,#383,.T.);
#383 = SURFACE_CURVE('',#384,(#400,#407),.PCURVE_S1.);
#384 = B_SPLINE_CURVE_WITH_KNOTS('',14,(#385,#386,#387,#388,#389,#390,
    #391,#392,#393,#394,#395,#396,#397,#398,#399),.UNSPECIFIED.,.T.,.F.,
  (1,14,14,1),(-6.28318530718,0.,6.28318530718,12.56637061436),
  .UNSPECIFIED.);
#385 = CARTESIAN_POINT('',(5.3,-7.105427357601E-15,4.440892098501E-16));
#386 = CARTESIAN_POINT('',(5.299999999998,1.675957183326E-02,
    -0.131629369378));
#387 = CARTESIAN_POINT('',(5.236695737502,3.384420859572E-02,
    -0.265811792698));
#388 = CARTESIAN_POINT('',(5.106729661298,4.706522519921E-02,
    -0.369649414399));
#389 = CARTESIAN_POINT('',(4.924770288246,5.069346932032E-02,
    -0.398145576817));
#390 = CARTESIAN_POINT('',(4.748862806757,4.341727665385E-02,
    -0.340998493764));
#391 = CARTESIAN_POINT('',(4.608615032583,2.535662497219E-02,
    -0.19915046636));
#392 = CARTESIAN_POINT('',(4.551825394409,-7.004377633457E-11,
    -1.057853804554E-11));
#393 = CARTESIAN_POINT('',(4.608615032588,-2.535662484487E-02,
    0.19915046638));
#394 = CARTESIAN_POINT('',(4.748862806749,-4.341727674914E-02,
    0.340998493749));
#395 = CARTESIAN_POINT('',(4.924770288253,-5.069346926242E-02,
    0.398145576826));
#396 = CARTESIAN_POINT('',(5.106729661294,-4.706522522696E-02,
    0.369649414395));
#397 = CARTESIAN_POINT('',(5.236695737504,-3.384420858592E-02,
    0.265811792699));
#398 = CARTESIAN_POINT('',(5.299999999998,-1.675957183538E-02,
    0.131629369378));
#399 = CARTESIAN_POINT('',(5.3,-7.105427357601E-15,4.440892098501E-16));
#400 = PCURVE('',#47,#401);
#401 = DEFINITIONAL_REPRESENTATION('',(#402),#406);
#402 = LINE('',#403,#404);
#403 = CARTESIAN_POINT('',(0.,0.));
#404 = VECTOR('',#405,1.);
#405 = DIRECTION('',(1.,0.));
#406 = ( GEOMETRIC_REPRESENTATION_CONTEXT(2) 
PARAMETRIC_REPRESENTATION_CONTEXT() REPRESENTATION_CONTEXT('2D SPACE',''
  ) );
#407 = PCURVE('',#408,#413);
#408 = PLANE('',#409);
#409 = AXIS2_PLACEMENT_3D('',#410,#411,#412);
#410 = CARTESIAN_POINT('',(5.000010214222,-5.022426682488E-15,
    -7.410839375599E-15));
#411 = DIRECTION('',(1.705765705974E-15,0.991991545946,0.126304286434));
#412 = DIRECTION('',(7.395570986447E-32,-0.126304286434,0.991991545946)
  );
#413 = DEFINITIONAL_REPRESENTATION('',(#414),#430);
#414 = B_SPLINE_CURVE_WITH_KNOTS('',14,(#415,#416,#417,#418,#419,#420,
    #421,#422,#423,#424,#425,#426,#427,#428,#429),.UNSPECIFIED.,.T.,.F.,
  (1,14,14,1),(-6.28318530718,0.,6.28318530718,12.56637061436),
  .UNSPECIFIED.);
#415 = CARTESIAN_POINT('',(8.055114664687E-15,0.299989785778));
#416 = CARTESIAN_POINT('',(-0.132692027383,0.299989785776));
#417 = CARTESIAN_POINT('',(-0.267957719786,0.23668552328));
#418 = CARTESIAN_POINT('',(-0.372633633732,0.106719447076));
#419 = CARTESIAN_POINT('',(-0.401359848728,-7.5239925976E-02));
#420 = CARTESIAN_POINT('',(-0.343751411141,-0.251147407465));
#421 = CARTESIAN_POINT('',(-0.200758229424,-0.391395181639));
#422 = CARTESIAN_POINT('',(-1.640273984573E-12,-0.448184819813));
#423 = CARTESIAN_POINT('',(0.200758229428,-0.391395181634));
#424 = CARTESIAN_POINT('',(0.343751411138,-0.251147407473));
#425 = CARTESIAN_POINT('',(0.401359848729,-7.5239925969E-02));
#426 = CARTESIAN_POINT('',(0.372633633732,0.106719447072));
#427 = CARTESIAN_POINT('',(0.267957719786,0.236685523282));
#428 = CARTESIAN_POINT('',(0.132692027383,0.299989785776));
#429 = CARTESIAN_POINT('',(8.055114664687E-15,0.299989785778));
#430 = ( GEOMETRIC_REPRESENTATION_CONTEXT(2) 
PARAMETRIC_REPRESENTATION_CONTEXT() REPRESENTATION_CONTEXT('2D SPACE',''
  ) );
#431 = ADVANCED_FACE('',(#432),#408,.F.);
#432 = FACE_BOUND('',#433,.F.);
#433 = EDGE_LOOP('',(#434));
#434 = ORIENTED_EDGE('',*,*,#382,.T.);
#435 = ADVANCED_FACE('',(#436),#357,.T.);
#436 = FACE_BOUND('',#437,.T.);
#437 = EDGE_LOOP('',(#438));
#438 = ORIENTED_EDGE('',*,*,#331,.T.);
#439 = ( GEOMETRIC_REPRESENTATION_CONTEXT(3) 
GLOBAL_UNCERTAINTY_ASSIGNED_CONTEXT((#443)) GLOBAL_UNIT_ASSIGNED_CONTEXT
((#440,#441,#442)) REPRESENTATION_CONTEXT('Context #1',
  '3D Context with UNIT and UNCERTAINTY') );
#440 = ( LENGTH_UNIT() NAMED_UNIT(*) SI_UNIT(.MILLI.,.METRE.) );
#441 = ( NAMED_UNIT(*) PLANE_ANGLE_UNIT() SI_UNIT($,.RADIAN.) );
#442 = ( NAMED_UNIT(*) SI_UNIT($,.STERADIAN.) SOLID_ANGLE_UNIT() );
#443 = UNCERTAINTY_MEASURE_WITH_UNIT(LENGTH_MEASURE(1.E-07),#440,
  'distance_accuracy_value','confusion accuracy');
#444 = PRODUCT_RELATED_PRODUCT_CATEGORY('part',$,(#7));
ENDSEC;
END-ISO-10303-21;
