ISO-10303-21;
HEADER;
FILE_DESCRIPTION(('Open CASCADE Model'),'2;1');
FILE_NAME('Open CASCADE Shape Model','2026-09-13T10:34:30',('Author'),(
    'Open CASCADE'),'Open CASCADE STEP processor 7.9','Open CASCADE 7.9'
  ,'Unknown');
FILE_SCHEMA(('AUTOMOTIVE_DESIGN { 1 0 10303 214 1 1 1 1 }'));
ENDSEC;
DATA;
#1 = APPLICATION_PROTOCOL_DEFINITION('international standard',
  'automotive_design',2000,#2);
#2 = APPLICATION_CONTEXT(
  'core data for automotive mechanical design processes');
#3 = SHAPE_DEFINITION_REPRESENTATION(#4,#10);
#4 = PRODUCT_DEFINITION_SHAPE('','',#5);
#5 = PRODUCT_DEFINITION('design','',#6,#9);
#6 = PRODUCT_DEFINITION_FORMATION('','',#7);
#7 = PRODUCT('Open CASCADE STEP translator 7.9 9',
  'Open CASCADE STEP translator 7.9 9','',(#8));
#8 = PRODUCT_CONTEXT('',#2,'mechanical');
#9 = PRODUCT_DEFINITION_CONTEXT('part definition',#2,'design');
#10 = MANIFOLD_SURFACE_SHAPE_REPRESENTATION('',(#11,#15),#97);
#11 = AXIS2_PLACEMENT_3D('',#12,#13,#14);
#12 = CARTESIAN_POINT('',(0.,0.,0.));
#13 = DIRECTION('',(0.,0.,1.));
#14 = DIRECTION('',(1.,0.,-0.));
#15 = SHELL_BASED_SURFACE_MODEL('',(#16));
#16 = OPEN_SHELL('',(#17));
#17 = ADVANCED_FACE('',(#18),#32,.T.);
#18 = FACE_BOUND('',#19,.F.);
#19 = EDGE_LOOP('',(#20,#54,#69,#84));
#20 = ORIENTED_EDGE('',*,*,#21,.T.);
#21 = EDGE_CURVE('',#22,#24,#26,.T.);
#22 = VERTEX_POINT('',#23);
#23 = CARTESIAN_POINT('',(0.,0.,0.));
#24 = VERTEX_POINT('',#25);
#25 = CARTESIAN_POINT('',(0.,8.,1.92));
#26 = SURFACE_CURVE('',#27,(#31),.PCURVE_S1.);
#27 = B_SPLINE_CURVE_WITH_KNOTS('',2,(#28,#29,#30),.UNSPECIFIED.,.F.,.F.
  ,(3,3),(0.,1.),.PIECEWISE_BEZIER_KNOTS.);
#28 = CARTESIAN_POINT('',(0.,0.,0.));
#29 = CARTESIAN_POINT('',(0.,4.215236297467,5.096231371524E-02));
#30 = CARTESIAN_POINT('',(0.,8.,1.92));
#31 = PCURVE('',#32,#49);
#32 = B_SPLINE_SURFACE_WITH_KNOTS('',3,3,(
    (#33,#34,#35,#36)
    ,(#37,#38,#39,#40)
    ,(#41,#42,#43,#44)
    ,(#45,#46,#47,#48
    )),.UNSPECIFIED.,.F.,.F.,.F.,(4,4),(4,4),(0.,1.1),(0.,1.1),
  .PIECEWISE_BEZIER_KNOTS.);
#33 = CARTESIAN_POINT('',(1.746138614645E-15,1.7763568394E-15,
    -1.221245327088E-15));
#34 = CARTESIAN_POINT('',(2.325178271082E-15,3.091173284809,
    3.737236339119E-02));
#35 = CARTESIAN_POINT('',(5.24448377954E-15,6.008722622995,
    0.808035127052));
#36 = CARTESIAN_POINT('',(-3.138842693706E-15,8.752648014557,
    2.311988290983));
#37 = CARTESIAN_POINT('',(3.806450673748,1.7763568394E-15,
    2.769044949403E-02));
#38 = CARTESIAN_POINT('',(3.806450673748,3.091173284809,
    6.506281288513E-02));
#39 = CARTESIAN_POINT('',(3.806450673748,6.008722622995,0.835725576546)
  );
#40 = CARTESIAN_POINT('',(3.806450673748,8.752648014557,2.339678740477)
  );
#41 = CARTESIAN_POINT('',(7.459138939707,-2.22044604925E-15,
    0.831588071211));
#42 = CARTESIAN_POINT('',(7.459138939706,3.091173284809,0.868960434602)
  );
#43 = CARTESIAN_POINT('',(7.459138939707,6.008722622995,1.639623198263)
  );
#44 = CARTESIAN_POINT('',(7.459138939707,8.752648014557,3.143576362194)
  );
#45 = CARTESIAN_POINT('',(10.958064797876,1.7763568394E-15,
    2.411692865152));
#46 = CARTESIAN_POINT('',(10.958064797876,3.091173284809,2.449065228543)
  );
#47 = CARTESIAN_POINT('',(10.958064797876,6.008722622995,3.219727992204)
  );
#48 = CARTESIAN_POINT('',(10.958064797876,8.752648014557,4.723681156134)
  );
#49 = DEFINITIONAL_REPRESENTATION('',(#50),#53);
#50 = B_SPLINE_CURVE_WITH_KNOTS('',1,(#51,#52),.UNSPECIFIED.,.F.,.F.,(2,
    2),(0.,1.),.PIECEWISE_BEZIER_KNOTS.);
#51 = CARTESIAN_POINT('',(0.,0.));
#52 = CARTESIAN_POINT('',(0.,1.));
#53 = ( GEOMETRIC_REPRESENTATION_CONTEXT(2) 
PARAMETRIC_REPRESENTATION_CONTEXT() REPRESENTATION_CONTEXT('2D SPACE',''
  ) );
#54 = ORIENTED_EDGE('',*,*,#55,.T.);
#55 = EDGE_CURVE('',#24,#56,#58,.T.);
#56 = VERTEX_POINT('',#57);
#57 = CARTESIAN_POINT('',(10.,8.,3.92));
#58 = SURFACE_CURVE('',#59,(#63),.PCURVE_S1.);
#59 = B_SPLINE_CURVE_WITH_KNOTS('',2,(#60,#61,#62),.UNSPECIFIED.,.F.,.F.
  ,(3,3),(0.,1.),.PIECEWISE_BEZIER_KNOTS.);
#60 = CARTESIAN_POINT('',(0.,8.,1.92));
#61 = CARTESIAN_POINT('',(5.190614555111,8.,1.957759703855));
#62 = CARTESIAN_POINT('',(10.,8.,3.92));
#63 = PCURVE('',#32,#64);
#64 = DEFINITIONAL_REPRESENTATION('',(#65),#68);
#65 = B_SPLINE_CURVE_WITH_KNOTS('',1,(#66,#67),.UNSPECIFIED.,.F.,.F.,(2,
    2),(0.,1.),.PIECEWISE_BEZIER_KNOTS.);
#66 = CARTESIAN_POINT('',(0.,1.));
#67 = CARTESIAN_POINT('',(1.,1.));
#68 = ( GEOMETRIC_REPRESENTATION_CONTEXT(2) 
PARAMETRIC_REPRESENTATION_CONTEXT() REPRESENTATION_CONTEXT('2D SPACE',''
  ) );
#69 = ORIENTED_EDGE('',*,*,#70,.F.);
#70 = EDGE_CURVE('',#71,#56,#73,.T.);
#71 = VERTEX_POINT('',#72);
#72 = CARTESIAN_POINT('',(10.,0.,2.));
#73 = SURFACE_CURVE('',#74,(#78),.PCURVE_S1.);
#74 = B_SPLINE_CURVE_WITH_KNOTS('',2,(#75,#76,#77),.UNSPECIFIED.,.F.,.F.
  ,(3,3),(0.,1.),.PIECEWISE_BEZIER_KNOTS.);
#75 = CARTESIAN_POINT('',(10.,0.,2.));
#76 = CARTESIAN_POINT('',(10.,4.215236297467,2.050962313715));
#77 = CARTESIAN_POINT('',(10.,8.,3.92));
#78 = PCURVE('',#32,#79);
#79 = DEFINITIONAL_REPRESENTATION('',(#80),#83);
#80 = B_SPLINE_CURVE_WITH_KNOTS('',1,(#81,#82),.UNSPECIFIED.,.F.,.F.,(2,
    2),(0.,1.),.PIECEWISE_BEZIER_KNOTS.);
#81 = CARTESIAN_POINT('',(1.,0.));
#82 = CARTESIAN_POINT('',(1.,1.));
#83 = ( GEOMETRIC_REPRESENTATION_CONTEXT(2) 
PARAMETRIC_REPRESENTATION_CONTEXT() REPRESENTATION_CONTEXT('2D SPACE',''
  ) );
#84 = ORIENTED_EDGE('',*,*,#85,.F.);
#85 = EDGE_CURVE('',#22,#71,#86,.T.);
#86 = SURFACE_CURVE('',#87,(#91),.PCURVE_S1.);
#87 = B_SPLINE_CURVE_WITH_KNOTS('',2,(#88,#89,#90),.UNSPECIFIED.,.F.,.F.
  ,(3,3),(0.,1.),.PIECEWISE_BEZIER_KNOTS.);
#88 = CARTESIAN_POINT('',(0.,0.,0.));
#89 = CARTESIAN_POINT('',(5.190614555111,0.,3.775970385547E-02));
#90 = CARTESIAN_POINT('',(10.,0.,2.));
#91 = PCURVE('',#32,#92);
#92 = DEFINITIONAL_REPRESENTATION('',(#93),#96);
#93 = B_SPLINE_CURVE_WITH_KNOTS('',1,(#94,#95),.UNSPECIFIED.,.F.,.F.,(2,
    2),(0.,1.),.PIECEWISE_BEZIER_KNOTS.);
#94 = CARTESIAN_POINT('',(0.,0.));
#95 = CARTESIAN_POINT('',(1.,0.));
#96 = ( GEOMETRIC_REPRESENTATION_CONTEXT(2) 
PARAMETRIC_REPRESENTATION_CONTEXT() REPRESENTATION_CONTEXT('2D SPACE',''
  ) );
#97 = ( GEOMETRIC_REPRESENTATION_CONTEXT(3) 
GLOBAL_UNCERTAINTY_ASSIGNED_CONTEXT((#101)) GLOBAL_UNIT_ASSIGNED_CONTEXT
((#98,#99,#100)) REPRESENTATION_CONTEXT('Context #1',
  '3D Context with UNIT and UNCERTAINTY') );
#98 = ( LENGTH_UNIT() NAMED_UNIT(*) SI_UNIT(.MILLI.,.METRE.) );
#99 = ( NAMED_UNIT(*) PLANE_ANGLE_UNIT() SI_UNIT($,.RADIAN.) );
#100 = ( NAMED_UNIT(*) SI_UNIT($,.STERADIAN.) SOLID_ANGLE_UNIT() );
#101 = UNCERTAINTY_MEASURE_WITH_UNIT(LENGTH_MEASURE(1.E-07),#98,
  'distance_accuracy_value','confusion accuracy');
#102 = PRODUCT_RELATED_PRODUCT_CATEGORY('part',$,(#7));
ENDSEC;
END-ISO-10303-21;
