ISO-10303-21;
HEADER;
FILE_DESCRIPTION(('Open CASCADE Model'),'2;1');
FILE_NAME('Open CASCADE Shape Model','2026-09-13T17:38:12',('Author'),(
    'Open CASCADE'),'Open CASCADE STEP processor 7.9','Open CASCADE 7.9'
  ,'Unknown');
FILE_SCHEMA(('AUTOMOTIVE_DESIGN { 1 0 10303 214 1 1 1 1 }'));
ENDSEC;
DATA;
#1 = APPLICATION_PROTOCOL_DEFINITION('international standard',
  'automotive_design',2000,#2);
#2 = APPLICATION_CONTEXT(
  'core data for automotive mechanical design processes');
#3 = SHAPE_DEFINITION_REPRESENTATION(#4,#10);
#4 = PRODUCT_DEFINITION_SHAPE('','',#5);
#5 = PRODUCT_DEFINITION('design','',#6,#9);
#6 = PRODUCT_DEFINITION_FORMATION('','',#7);
#7 = PRODUCT('Open CASCADE STEP translator 7.9 1',
  'Open CASCADE STEP translator 7.9 1','',(#8));
#8 = PRODUCT_CONTEXT('',#2,'mechanical');
#9 = PRODUCT_DEFINITION_CONTEXT('part definition',#2,'design');
#10 = ADVANCED_BREP_SHAPE_REPRESENTATION('',(#11,#15),#480);
#11 = AXIS2_PLACEMENT_3D('',#12,#13,#14);
#12 = CARTESIAN_POINT('',(0.,0.,0.));
#13 = DIRECTION('',(0.,0.,1.));
#14 = DIRECTION('',(1.,0.,-0.));
#15 = MANIFOLD_SOLID_BREP('',#16);
#16 = CLOSED_SHELL('',(#17,#173,#260,#347,#417,#464,#472));
#17 = ADVANCED_FACE('',(#18),#32,.T.);
#18 = FACE_BOUND('',#19,.T.);
#19 = EDGE_LOOP('',(#20,#67,#106,#134));
#20 = ORIENTED_EDGE('',*,*,#21,.T.);
#21 = EDGE_CURVE('',#22,#24,#26,.T.);
#22 = VERTEX_POINT('',#23);
#23 = CARTESIAN_POINT('',(-5.,-4.004,0.));
#24 = VERTEX_POINT('',#25);
#25 = CARTESIAN_POINT('',(4.998,-4.004,0.));
#26 = SURFACE_CURVE('',#27,(#31,#55),.PCURVE_S1.);
#27 = LINE('',#28,#29);
#28 = CARTESIAN_POINT('',(-5.,-4.004,0.));
#29 = VECTOR('',#30,1.);
#30 = DIRECTION('',(1.,0.,0.));
#31 = PCURVE('',#32,#49);
#32 = B_SPLINE_SURFACE_WITH_KNOTS('',7,1,(
    (#33,#34)
    ,(#35,#36)
    ,(#37,#38)
    ,(#39,#40)
    ,(#41,#42)
    ,(#43,#44)
    ,(#45,#46)
    ,(#47,#48
  )),.UNSPECIFIED.,.F.,.F.,.F.,(8,8),(2,2),(0.,9.998),(0.,1.),
  .PIECEWISE_BEZIER_KNOTS.);
#33 = CARTESIAN_POINT('',(-5.,-4.004,0.));
#34 = CARTESIAN_POINT('',(-2.144626091219,-1.725835730567,15.));
#35 = CARTESIAN_POINT('',(-3.571714285714,-4.004,0.));
#36 = CARTESIAN_POINT('',(-1.601616905791,-1.89799567646,15.));
#37 = CARTESIAN_POINT('',(-2.143428571429,-4.004,0.));
#38 = CARTESIAN_POINT('',(-0.993805770512,-2.018128474724,15.));
#39 = CARTESIAN_POINT('',(-0.715142857143,-4.004,0.));
#40 = CARTESIAN_POINT('',(-0.344163467374,-2.078953111899,15.));
#41 = CARTESIAN_POINT('',(0.713142857143,-4.004,0.));
#42 = CARTESIAN_POINT('',(0.320228682396,-2.076481645441,15.));
#43 = CARTESIAN_POINT('',(2.141428571429,-4.004,0.));
#44 = CARTESIAN_POINT('',(0.970600929687,-2.010821095683,15.));
#45 = CARTESIAN_POINT('',(3.569714285714,-4.004,0.));
#46 = CARTESIAN_POINT('',(1.579824760811,-1.886161059854,15.));
#47 = CARTESIAN_POINT('',(4.998,-4.004,0.));
#48 = CARTESIAN_POINT('',(2.12484436846,-1.709953765316,15.));
#49 = DEFINITIONAL_REPRESENTATION('',(#50),#54);
#50 = LINE('',#51,#52);
#51 = CARTESIAN_POINT('',(0.,0.));
#52 = VECTOR('',#53,1.);
#53 = DIRECTION('',(1.,0.));
#54 = ( GEOMETRIC_REPRESENTATION_CONTEXT(2) 
PARAMETRIC_REPRESENTATION_CONTEXT() REPRESENTATION_CONTEXT('2D SPACE',''
  ) );
#55 = PCURVE('',#56,#61);
#56 = PLANE('',#57);
#57 = AXIS2_PLACEMENT_3D('',#58,#59,#60);
#58 = CARTESIAN_POINT('',(-5.,-4.004,0.));
#59 = DIRECTION('',(0.,0.,-1.));
#60 = DIRECTION('',(0.779779519745,0.626054231346,0.));
#61 = DEFINITIONAL_REPRESENTATION('',(#62),#66);
#62 = LINE('',#63,#64);
#63 = CARTESIAN_POINT('',(0.,0.));
#64 = VECTOR('',#65,1.);
#65 = DIRECTION('',(0.779779519745,0.626054231346));
#66 = ( GEOMETRIC_REPRESENTATION_CONTEXT(2) 
PARAMETRIC_REPRESENTATION_CONTEXT() REPRESENTATION_CONTEXT('2D SPACE',''
  ) );
#67 = ORIENTED_EDGE('',*,*,#68,.T.);
#68 = EDGE_CURVE('',#24,#69,#71,.T.);
#69 = VERTEX_POINT('',#70);
#70 = CARTESIAN_POINT('',(2.12484436846,-1.709953765316,15.));
#71 = SURFACE_CURVE('',#72,(#75,#82),.PCURVE_S1.);
#72 = B_SPLINE_CURVE_WITH_KNOTS('',1,(#73,#74),.UNSPECIFIED.,.F.,.F.,(2,
    2),(0.,1.),.PIECEWISE_BEZIER_KNOTS.);
#73 = CARTESIAN_POINT('',(4.998,-4.004,0.));
#74 = CARTESIAN_POINT('',(2.12484436846,-1.709953765316,15.));
#75 = PCURVE('',#32,#76);
#76 = DEFINITIONAL_REPRESENTATION('',(#77),#81);
#77 = LINE('',#78,#79);
#78 = CARTESIAN_POINT('',(9.998,0.));
#79 = VECTOR('',#80,1.);
#80 = DIRECTION('',(0.,1.));
#81 = ( GEOMETRIC_REPRESENTATION_CONTEXT(2) 
PARAMETRIC_REPRESENTATION_CONTEXT() REPRESENTATION_CONTEXT('2D SPACE',''
  ) );
#82 = PCURVE('',#83,#100);
#83 = B_SPLINE_SURFACE_WITH_KNOTS('',7,1,(
    (#84,#85)
    ,(#86,#87)
    ,(#88,#89)
    ,(#90,#91)
    ,(#92,#93)
    ,(#94,#95)
    ,(#96,#97)
    ,(#98,#99
    )),.UNSPECIFIED.,.F.,.F.,.F.,(8,8),(2,2),(0.,4.048510505253),(0.,1.)
  ,.PIECEWISE_BEZIER_KNOTS.);
#84 = CARTESIAN_POINT('',(4.998,-4.004,0.));
#85 = CARTESIAN_POINT('',(2.12484436846,-1.709953765316,15.));
#86 = CARTESIAN_POINT('',(4.998,-3.425641356392,0.));
#87 = CARTESIAN_POINT('',(2.61542525536,-1.551346754449,15.));
#88 = CARTESIAN_POINT('',(4.998,-2.847282712785,0.));
#89 = CARTESIAN_POINT('',(3.053987155835,-1.350975836272,15.));
#90 = CARTESIAN_POINT('',(4.998,-2.268924069177,0.));
#91 = CARTESIAN_POINT('',(3.423717302226,-1.114277460377,15.));
#92 = CARTESIAN_POINT('',(4.998,-1.69056542557,0.));
#93 = CARTESIAN_POINT('',(3.710471360415,-0.848833270612,15.));
#94 = CARTESIAN_POINT('',(4.998,-1.112206781962,0.));
#95 = CARTESIAN_POINT('',(3.904236484269,-0.563912017511,15.));
#96 = CARTESIAN_POINT('',(4.998,-0.533848138355,0.));
#97 = CARTESIAN_POINT('',(4.000056321216,-0.269613293658,15.));
#98 = CARTESIAN_POINT('',(4.998,4.451050525263E-02,0.));
#99 = CARTESIAN_POINT('',(3.998,2.4E-02,15.));
#100 = DEFINITIONAL_REPRESENTATION('',(#101),#105);
#101 = LINE('',#102,#103);
#102 = CARTESIAN_POINT('',(0.,0.));
#103 = VECTOR('',#104,1.);
#104 = DIRECTION('',(0.,1.));
#105 = ( GEOMETRIC_REPRESENTATION_CONTEXT(2) 
PARAMETRIC_REPRESENTATION_CONTEXT() REPRESENTATION_CONTEXT('2D SPACE',''
  ) );
#106 = ORIENTED_EDGE('',*,*,#107,.F.);
#107 = EDGE_CURVE('',#108,#69,#110,.T.);
#108 = VERTEX_POINT('',#109);
#109 = CARTESIAN_POINT('',(-2.144626091219,-1.725835730567,15.));
#110 = SURFACE_CURVE('',#111,(#116,#122),.PCURVE_S1.);
#111 = ELLIPSE('',#112,3.998098047822,2.02695029063);
#112 = AXIS2_PLACEMENT_3D('',#113,#114,#115);
#113 = CARTESIAN_POINT('',(0.,-4.E-03,15.));
#114 = DIRECTION('',(0.,0.,1.));
#115 = DIRECTION('',(0.999975476384,7.003329999686E-03,-0.));
#116 = PCURVE('',#32,#117);
#117 = DEFINITIONAL_REPRESENTATION('',(#118),#121);
#118 = B_SPLINE_CURVE_WITH_KNOTS('',1,(#119,#120),.UNSPECIFIED.,.F.,.F.,
  (2,2),(4.142647354371,5.269177479971),.PIECEWISE_BEZIER_KNOTS.);
#119 = CARTESIAN_POINT('',(0.,1.));
#120 = CARTESIAN_POINT('',(9.998,1.));
#121 = ( GEOMETRIC_REPRESENTATION_CONTEXT(2) 
PARAMETRIC_REPRESENTATION_CONTEXT() REPRESENTATION_CONTEXT('2D SPACE',''
  ) );
#122 = PCURVE('',#123,#128);
#123 = PLANE('',#124);
#124 = AXIS2_PLACEMENT_3D('',#125,#126,#127);
#125 = CARTESIAN_POINT('',(0.,-4.E-03,15.));
#126 = DIRECTION('',(0.,0.,1.));
#127 = DIRECTION('',(0.999975476384,7.003329999686E-03,-0.));
#128 = DEFINITIONAL_REPRESENTATION('',(#129),#133);
#129 = ELLIPSE('',#130,3.998098047822,2.02695029063);
#130 = AXIS2_PLACEMENT_2D('',#131,#132);
#131 = CARTESIAN_POINT('',(0.,0.));
#132 = DIRECTION('',(1.,-1.332785116031E-19));
#133 = ( GEOMETRIC_REPRESENTATION_CONTEXT(2) 
PARAMETRIC_REPRESENTATION_CONTEXT() REPRESENTATION_CONTEXT('2D SPACE',''
  ) );
#134 = ORIENTED_EDGE('',*,*,#135,.F.);
#135 = EDGE_CURVE('',#22,#108,#136,.T.);
#136 = SURFACE_CURVE('',#137,(#140,#147),.PCURVE_S1.);
#137 = B_SPLINE_CURVE_WITH_KNOTS('',1,(#138,#139),.UNSPECIFIED.,.F.,.F.,
  (2,2),(0.,1.),.PIECEWISE_BEZIER_KNOTS.);
#138 = CARTESIAN_POINT('',(-5.,-4.004,0.));
#139 = CARTESIAN_POINT('',(-2.144626091219,-1.725835730567,15.));
#140 = PCURVE('',#32,#141);
#141 = DEFINITIONAL_REPRESENTATION('',(#142),#146);
#142 = LINE('',#143,#144);
#143 = CARTESIAN_POINT('',(0.,0.));
#144 = VECTOR('',#145,1.);
#145 = DIRECTION('',(0.,1.));
#146 = ( GEOMETRIC_REPRESENTATION_CONTEXT(2) 
PARAMETRIC_REPRESENTATION_CONTEXT() REPRESENTATION_CONTEXT('2D SPACE',''
  ) );
#147 = PCURVE('',#148,#167);
#148 = B_SPLINE_SURFACE_WITH_KNOTS('',8,1,(
    (#149,#150)
    ,(#151,#152)
    ,(#153,#154)
    ,(#155,#156)
    ,(#157,#158)
    ,(#159,#160)
    ,(#161,#162)
    ,(#163,#164)
    ,(#165,#166
    )),.UNSPECIFIED.,.F.,.F.,.F.,(9,9),(2,2),(0.,8.027),(0.,1.),
  .PIECEWISE_BEZIER_KNOTS.);
#149 = CARTESIAN_POINT('',(-5.,4.023,0.));
#150 = CARTESIAN_POINT('',(-2.12484436846,1.701953765316,15.));
#151 = CARTESIAN_POINT('',(-5.,3.019625,0.));
#152 = CARTESIAN_POINT('',(-2.977877494698,1.426164312575,15.));
#153 = CARTESIAN_POINT('',(-5.,2.01625,0.));
#154 = CARTESIAN_POINT('',(-3.67684154307,1.026677124679,15.));
#155 = CARTESIAN_POINT('',(-5.,1.012875,0.));
#156 = CARTESIAN_POINT('',(-4.139264602494,0.530167401518,
    15.000000000001));
#157 = CARTESIAN_POINT('',(-5.,9.5E-03,0.));
#158 = CARTESIAN_POINT('',(-4.303542575121,-2.000870981161E-02,
    14.999999999999));
#159 = CARTESIAN_POINT('',(-5.,-0.993875,0.));
#160 = CARTESIAN_POINT('',(-4.145607801904,-0.568986224809,
    15.000000000001));
#161 = CARTESIAN_POINT('',(-5.,-1.99725,0.));
#162 = CARTESIAN_POINT('',(-3.688895711622,-1.062076865288,15.));
#163 = CARTESIAN_POINT('',(-5.,-3.000625,0.));
#164 = CARTESIAN_POINT('',(-2.994512621028,-1.456380953535,15.));
#165 = CARTESIAN_POINT('',(-5.,-4.004,0.));
#166 = CARTESIAN_POINT('',(-2.144626091219,-1.725835730567,15.));
#167 = DEFINITIONAL_REPRESENTATION('',(#168),#172);
#168 = LINE('',#169,#170);
#169 = CARTESIAN_POINT('',(8.027,0.));
#170 = VECTOR('',#171,1.);
#171 = DIRECTION('',(0.,1.));
#172 = ( GEOMETRIC_REPRESENTATION_CONTEXT(2) 
PARAMETRIC_REPRESENTATION_CONTEXT() REPRESENTATION_CONTEXT('2D SPACE',''
  ) );
#173 = ADVANCED_FACE('',(#174),#83,.T.);
#174 = FACE_BOUND('',#175,.T.);
#175 = EDGE_LOOP('',(#176,#199,#238,#259));
#176 = ORIENTED_EDGE('',*,*,#177,.T.);
#177 = EDGE_CURVE('',#24,#178,#180,.T.);
#178 = VERTEX_POINT('',#179);
#179 = CARTESIAN_POINT('',(4.998,4.451050525263E-02,0.));
#180 = SURFACE_CURVE('',#181,(#185,#192),.PCURVE_S1.);
#181 = LINE('',#182,#183);
#182 = CARTESIAN_POINT('',(4.998,-4.004,0.));
#183 = VECTOR('',#184,1.);
#184 = DIRECTION('',(0.,1.,0.));
#185 = PCURVE('',#83,#186);
#186 = DEFINITIONAL_REPRESENTATION('',(#187),#191);
#187 = LINE('',#188,#189);
#188 = CARTESIAN_POINT('',(0.,0.));
#189 = VECTOR('',#190,1.);
#190 = DIRECTION('',(1.,0.));
#191 = ( GEOMETRIC_REPRESENTATION_CONTEXT(2) 
PARAMETRIC_REPRESENTATION_CONTEXT() REPRESENTATION_CONTEXT('2D SPACE',''
  ) );
#192 = PCURVE('',#56,#193);
#193 = DEFINITIONAL_REPRESENTATION('',(#194),#198);
#194 = LINE('',#195,#196);
#195 = CARTESIAN_POINT('',(7.796235638413,6.259290204995));
#196 = VECTOR('',#197,1.);
#197 = DIRECTION('',(0.626054231346,-0.779779519745));
#198 = ( GEOMETRIC_REPRESENTATION_CONTEXT(2) 
PARAMETRIC_REPRESENTATION_CONTEXT() REPRESENTATION_CONTEXT('2D SPACE',''
  ) );
#199 = ORIENTED_EDGE('',*,*,#200,.T.);
#200 = EDGE_CURVE('',#178,#201,#203,.T.);
#201 = VERTEX_POINT('',#202);
#202 = CARTESIAN_POINT('',(3.998,2.4E-02,15.));
#203 = SURFACE_CURVE('',#204,(#207,#214),.PCURVE_S1.);
#204 = B_SPLINE_CURVE_WITH_KNOTS('',1,(#205,#206),.UNSPECIFIED.,.F.,.F.,
  (2,2),(0.,1.),.PIECEWISE_BEZIER_KNOTS.);
#205 = CARTESIAN_POINT('',(4.998,4.451050525263E-02,0.));
#206 = CARTESIAN_POINT('',(3.998,2.4E-02,15.));
#207 = PCURVE('',#83,#208);
#208 = DEFINITIONAL_REPRESENTATION('',(#209),#213);
#209 = LINE('',#210,#211);
#210 = CARTESIAN_POINT('',(4.048510505253,0.));
#211 = VECTOR('',#212,1.);
#212 = DIRECTION('',(0.,1.));
#213 = ( GEOMETRIC_REPRESENTATION_CONTEXT(2) 
PARAMETRIC_REPRESENTATION_CONTEXT() REPRESENTATION_CONTEXT('2D SPACE',''
  ) );
#214 = PCURVE('',#215,#232);
#215 = B_SPLINE_SURFACE_WITH_KNOTS('',7,1,(
    (#216,#217)
    ,(#218,#219)
    ,(#220,#221)
    ,(#222,#223)
    ,(#224,#225)
    ,(#226,#227)
    ,(#228,#229)
    ,(#230,#231
    )),.UNSPECIFIED.,.F.,.F.,.F.,(8,8),(2,2),(4.048510505253,8.027),(0.,
    1.),.PIECEWISE_BEZIER_KNOTS.);
#216 = CARTESIAN_POINT('',(4.998,4.451050525263E-02,0.));
#217 = CARTESIAN_POINT('',(3.998,2.4E-02,15.));
#218 = CARTESIAN_POINT('',(4.998,0.612866147359,0.));
#219 = CARTESIAN_POINT('',(3.995969946617,0.313862622301,15.));
#220 = CARTESIAN_POINT('',(4.998,1.181221789466,0.));
#221 = CARTESIAN_POINT('',(3.898548353609,0.603057129079,15.));
#222 = CARTESIAN_POINT('',(4.998,1.749577431573,0.));
#223 = CARTESIAN_POINT('',(3.70580424893,0.881901344628,15.));
#224 = CARTESIAN_POINT('',(4.998,2.31793307368,0.));
#225 = CARTESIAN_POINT('',(3.422580541196,1.140745193476,15.));
#226 = CARTESIAN_POINT('',(4.998,2.886288715786,0.));
#227 = CARTESIAN_POINT('',(3.058510877085,1.370784291962,15.));
#228 = CARTESIAN_POINT('',(4.998,3.454644357893,0.));
#229 = CARTESIAN_POINT('',(2.627153708801,1.56485134142,15.));
#230 = CARTESIAN_POINT('',(4.998,4.023,0.));
#231 = CARTESIAN_POINT('',(2.144626091219,1.717835730567,15.));
#232 = DEFINITIONAL_REPRESENTATION('',(#233),#237);
#233 = LINE('',#234,#235);
#234 = CARTESIAN_POINT('',(4.048510505253,0.));
#235 = VECTOR('',#236,1.);
#236 = DIRECTION('',(0.,1.));
#237 = ( GEOMETRIC_REPRESENTATION_CONTEXT(2) 
PARAMETRIC_REPRESENTATION_CONTEXT() REPRESENTATION_CONTEXT('2D SPACE',''
  ) );
#238 = ORIENTED_EDGE('',*,*,#239,.F.);
#239 = EDGE_CURVE('',#69,#201,#240,.T.);
#240 = SURFACE_CURVE('',#241,(#246,#252),.PCURVE_S1.);
#241 = ELLIPSE('',#242,3.998098047822,2.02695029063);
#242 = AXIS2_PLACEMENT_3D('',#243,#244,#245);
#243 = CARTESIAN_POINT('',(0.,-4.E-03,15.));
#244 = DIRECTION('',(0.,0.,1.));
#245 = DIRECTION('',(0.999975476384,7.003329999686E-03,-0.));
#246 = PCURVE('',#83,#247);
#247 = DEFINITIONAL_REPRESENTATION('',(#248),#251);
#248 = B_SPLINE_CURVE_WITH_KNOTS('',1,(#249,#250),.UNSPECIFIED.,.F.,.F.,
  (2,2),(5.269177479971,6.28318530718),.PIECEWISE_BEZIER_KNOTS.);
#249 = CARTESIAN_POINT('',(0.,1.));
#250 = CARTESIAN_POINT('',(4.048510505253,1.));
#251 = ( GEOMETRIC_REPRESENTATION_CONTEXT(2) 
PARAMETRIC_REPRESENTATION_CONTEXT() REPRESENTATION_CONTEXT('2D SPACE',''
  ) );
#252 = PCURVE('',#123,#253);
#253 = DEFINITIONAL_REPRESENTATION('',(#254),#258);
#254 = ELLIPSE('',#255,3.998098047822,2.02695029063);
#255 = AXIS2_PLACEMENT_2D('',#256,#257);
#256 = CARTESIAN_POINT('',(0.,0.));
#257 = DIRECTION('',(1.,-1.332785116031E-19));
#258 = ( GEOMETRIC_REPRESENTATION_CONTEXT(2) 
PARAMETRIC_REPRESENTATION_CONTEXT() REPRESENTATION_CONTEXT('2D SPACE',''
  ) );
#259 = ORIENTED_EDGE('',*,*,#68,.F.);
#260 = ADVANCED_FACE('',(#261),#215,.T.);
#261 = FACE_BOUND('',#262,.T.);
#262 = EDGE_LOOP('',(#263,#286,#325,#346));
#263 = ORIENTED_EDGE('',*,*,#264,.T.);
#264 = EDGE_CURVE('',#178,#265,#267,.T.);
#265 = VERTEX_POINT('',#266);
#266 = CARTESIAN_POINT('',(4.998,4.023,0.));
#267 = SURFACE_CURVE('',#268,(#272,#279),.PCURVE_S1.);
#268 = LINE('',#269,#270);
#269 = CARTESIAN_POINT('',(4.998,-4.004,0.));
#270 = VECTOR('',#271,1.);
#271 = DIRECTION('',(0.,1.,0.));
#272 = PCURVE('',#215,#273);
#273 = DEFINITIONAL_REPRESENTATION('',(#274),#278);
#274 = LINE('',#275,#276);
#275 = CARTESIAN_POINT('',(0.,0.));
#276 = VECTOR('',#277,1.);
#277 = DIRECTION('',(1.,0.));
#278 = ( GEOMETRIC_REPRESENTATION_CONTEXT(2) 
PARAMETRIC_REPRESENTATION_CONTEXT() REPRESENTATION_CONTEXT('2D SPACE',''
  ) );
#279 = PCURVE('',#56,#280);
#280 = DEFINITIONAL_REPRESENTATION('',(#281),#285);
#281 = LINE('',#282,#283);
#282 = CARTESIAN_POINT('',(7.796235638413,6.259290204995));
#283 = VECTOR('',#284,1.);
#284 = DIRECTION('',(0.626054231346,-0.779779519745));
#285 = ( GEOMETRIC_REPRESENTATION_CONTEXT(2) 
PARAMETRIC_REPRESENTATION_CONTEXT() REPRESENTATION_CONTEXT('2D SPACE',''
  ) );
#286 = ORIENTED_EDGE('',*,*,#287,.T.);
#287 = EDGE_CURVE('',#265,#288,#290,.T.);
#288 = VERTEX_POINT('',#289);
#289 = CARTESIAN_POINT('',(2.144626091219,1.717835730567,15.));
#290 = SURFACE_CURVE('',#291,(#294,#301),.PCURVE_S1.);
#291 = B_SPLINE_CURVE_WITH_KNOTS('',1,(#292,#293),.UNSPECIFIED.,.F.,.F.,
  (2,2),(0.,1.),.PIECEWISE_BEZIER_KNOTS.);
#292 = CARTESIAN_POINT('',(4.998,4.023,0.));
#293 = CARTESIAN_POINT('',(2.144626091219,1.717835730567,15.));
#294 = PCURVE('',#215,#295);
#295 = DEFINITIONAL_REPRESENTATION('',(#296),#300);
#296 = LINE('',#297,#298);
#297 = CARTESIAN_POINT('',(8.027,0.));
#298 = VECTOR('',#299,1.);
#299 = DIRECTION('',(0.,1.));
#300 = ( GEOMETRIC_REPRESENTATION_CONTEXT(2) 
PARAMETRIC_REPRESENTATION_CONTEXT() REPRESENTATION_CONTEXT('2D SPACE',''
  ) );
#301 = PCURVE('',#302,#319);
#302 = B_SPLINE_SURFACE_WITH_KNOTS('',7,1,(
    (#303,#304)
    ,(#305,#306)
    ,(#307,#308)
    ,(#309,#310)
    ,(#311,#312)
    ,(#313,#314)
    ,(#315,#316)
    ,(#317,#318
    )),.UNSPECIFIED.,.F.,.F.,.F.,(8,8),(2,2),(0.,9.998),(0.,1.),
  .PIECEWISE_BEZIER_KNOTS.);
#303 = CARTESIAN_POINT('',(4.998,4.023,0.));
#304 = CARTESIAN_POINT('',(2.144626091219,1.717835730567,15.));
#305 = CARTESIAN_POINT('',(3.569714285714,4.023,0.));
#306 = CARTESIAN_POINT('',(1.601616905791,1.88999567646,15.));
#307 = CARTESIAN_POINT('',(2.141428571429,4.023,0.));
#308 = CARTESIAN_POINT('',(0.993805770512,2.010128474724,15.));
#309 = CARTESIAN_POINT('',(0.713142857143,4.023,0.));
#310 = CARTESIAN_POINT('',(0.344163467374,2.070953111899,15.));
#311 = CARTESIAN_POINT('',(-0.715142857143,4.023,0.));
#312 = CARTESIAN_POINT('',(-0.320228682396,2.068481645441,15.));
#313 = CARTESIAN_POINT('',(-2.143428571429,4.023,0.));
#314 = CARTESIAN_POINT('',(-0.970600929687,2.002821095683,15.));
#315 = CARTESIAN_POINT('',(-3.571714285714,4.023,0.));
#316 = CARTESIAN_POINT('',(-1.579824760811,1.878161059854,15.));
#317 = CARTESIAN_POINT('',(-5.,4.023,0.));
#318 = CARTESIAN_POINT('',(-2.12484436846,1.701953765316,15.));
#319 = DEFINITIONAL_REPRESENTATION('',(#320),#324);
#320 = LINE('',#321,#322);
#321 = CARTESIAN_POINT('',(0.,0.));
#322 = VECTOR('',#323,1.);
#323 = DIRECTION('',(0.,1.));
#324 = ( GEOMETRIC_REPRESENTATION_CONTEXT(2) 
PARAMETRIC_REPRESENTATION_CONTEXT() REPRESENTATION_CONTEXT('2D SPACE',''
  ) );
#325 = ORIENTED_EDGE('',*,*,#326,.F.);
#326 = EDGE_CURVE('',#201,#288,#327,.T.);
#327 = SURFACE_CURVE('',#328,(#333,#339),.PCURVE_S1.);
#328 = ELLIPSE('',#329,3.998098047822,2.02695029063);
#329 = AXIS2_PLACEMENT_3D('',#330,#331,#332);
#330 = CARTESIAN_POINT('',(0.,-4.E-03,15.));
#331 = DIRECTION('',(0.,0.,1.));
#332 = DIRECTION('',(0.999975476384,7.003329999686E-03,-0.));
#333 = PCURVE('',#215,#334);
#334 = DEFINITIONAL_REPRESENTATION('',(#335),#338);
#335 = B_SPLINE_CURVE_WITH_KNOTS('',1,(#336,#337),.UNSPECIFIED.,.F.,.F.,
  (2,2),(0.,1.001054700782),.PIECEWISE_BEZIER_KNOTS.);
#336 = CARTESIAN_POINT('',(4.048510505253,1.));
#337 = CARTESIAN_POINT('',(8.027,1.));
#338 = ( GEOMETRIC_REPRESENTATION_CONTEXT(2) 
PARAMETRIC_REPRESENTATION_CONTEXT() REPRESENTATION_CONTEXT('2D SPACE',''
  ) );
#339 = PCURVE('',#123,#340);
#340 = DEFINITIONAL_REPRESENTATION('',(#341),#345);
#341 = ELLIPSE('',#342,3.998098047822,2.02695029063);
#342 = AXIS2_PLACEMENT_2D('',#343,#344);
#343 = CARTESIAN_POINT('',(0.,0.));
#344 = DIRECTION('',(1.,-1.332785116031E-19));
#345 = ( GEOMETRIC_REPRESENTATION_CONTEXT(2) 
PARAMETRIC_REPRESENTATION_CONTEXT() REPRESENTATION_CONTEXT('2D SPACE',''
  ) );
#346 = ORIENTED_EDGE('',*,*,#200,.F.);
#347 = ADVANCED_FACE('',(#348),#302,.T.);
#348 = FACE_BOUND('',#349,.T.);
#349 = EDGE_LOOP('',(#350,#373,#395,#416));
#350 = ORIENTED_EDGE('',*,*,#351,.T.);
#351 = EDGE_CURVE('',#265,#352,#354,.T.);
#352 = VERTEX_POINT('',#353);
#353 = CARTESIAN_POINT('',(-5.,4.023,0.));
#354 = SURFACE_CURVE('',#355,(#359,#366),.PCURVE_S1.);
#355 = LINE('',#356,#357);
#356 = CARTESIAN_POINT('',(4.998,4.023,0.));
#357 = VECTOR('',#358,1.);
#358 = DIRECTION('',(-1.,0.,0.));
#359 = PCURVE('',#302,#360);
#360 = DEFINITIONAL_REPRESENTATION('',(#361),#365);
#361 = LINE('',#362,#363);
#362 = CARTESIAN_POINT('',(0.,0.));
#363 = VECTOR('',#364,1.);
#364 = DIRECTION('',(1.,0.));
#365 = ( GEOMETRIC_REPRESENTATION_CONTEXT(2) 
PARAMETRIC_REPRESENTATION_CONTEXT() REPRESENTATION_CONTEXT('2D SPACE',''
  ) );
#366 = PCURVE('',#56,#367);
#367 = DEFINITIONAL_REPRESENTATION('',(#368),#372);
#368 = LINE('',#369,#370);
#369 = CARTESIAN_POINT('',(12.821572953425,-3.967353728034E-16));
#370 = VECTOR('',#371,1.);
#371 = DIRECTION('',(-0.779779519745,-0.626054231346));
#372 = ( GEOMETRIC_REPRESENTATION_CONTEXT(2) 
PARAMETRIC_REPRESENTATION_CONTEXT() REPRESENTATION_CONTEXT('2D SPACE',''
  ) );
#373 = ORIENTED_EDGE('',*,*,#374,.T.);
#374 = EDGE_CURVE('',#352,#375,#377,.T.);
#375 = VERTEX_POINT('',#376);
#376 = CARTESIAN_POINT('',(-2.12484436846,1.701953765316,15.));
#377 = SURFACE_CURVE('',#378,(#381,#388),.PCURVE_S1.);
#378 = B_SPLINE_CURVE_WITH_KNOTS('',1,(#379,#380),.UNSPECIFIED.,.F.,.F.,
  (2,2),(0.,1.),.PIECEWISE_BEZIER_KNOTS.);
#379 = CARTESIAN_POINT('',(-5.,4.023,0.));
#380 = CARTESIAN_POINT('',(-2.12484436846,1.701953765316,15.));
#381 = PCURVE('',#302,#382);
#382 = DEFINITIONAL_REPRESENTATION('',(#383),#387);
#383 = LINE('',#384,#385);
#384 = CARTESIAN_POINT('',(9.998,0.));
#385 = VECTOR('',#386,1.);
#386 = DIRECTION('',(0.,1.));
#387 = ( GEOMETRIC_REPRESENTATION_CONTEXT(2) 
PARAMETRIC_REPRESENTATION_CONTEXT() REPRESENTATION_CONTEXT('2D SPACE',''
  ) );
#388 = PCURVE('',#148,#389);
#389 = DEFINITIONAL_REPRESENTATION('',(#390),#394);
#390 = LINE('',#391,#392);
#391 = CARTESIAN_POINT('',(0.,0.));
#392 = VECTOR('',#393,1.);
#393 = DIRECTION('',(0.,1.));
#394 = ( GEOMETRIC_REPRESENTATION_CONTEXT(2) 
PARAMETRIC_REPRESENTATION_CONTEXT() REPRESENTATION_CONTEXT('2D SPACE',''
  ) );
#395 = ORIENTED_EDGE('',*,*,#396,.F.);
#396 = EDGE_CURVE('',#288,#375,#397,.T.);
#397 = SURFACE_CURVE('',#398,(#403,#409),.PCURVE_S1.);
#398 = ELLIPSE('',#399,3.998098047822,2.02695029063);
#399 = AXIS2_PLACEMENT_3D('',#400,#401,#402);
#400 = CARTESIAN_POINT('',(0.,-4.E-03,15.));
#401 = DIRECTION('',(0.,0.,1.));
#402 = DIRECTION('',(0.999975476384,7.003329999686E-03,-0.));
#403 = PCURVE('',#302,#404);
#404 = DEFINITIONAL_REPRESENTATION('',(#405),#408);
#405 = B_SPLINE_CURVE_WITH_KNOTS('',1,(#406,#407),.UNSPECIFIED.,.F.,.F.,
  (2,2),(1.001054700782,2.127584826382),.PIECEWISE_BEZIER_KNOTS.);
#406 = CARTESIAN_POINT('',(0.,1.));
#407 = CARTESIAN_POINT('',(9.998,1.));
#408 = ( GEOMETRIC_REPRESENTATION_CONTEXT(2) 
PARAMETRIC_REPRESENTATION_CONTEXT() REPRESENTATION_CONTEXT('2D SPACE',''
  ) );
#409 = PCURVE('',#123,#410);
#410 = DEFINITIONAL_REPRESENTATION('',(#411),#415);
#411 = ELLIPSE('',#412,3.998098047822,2.02695029063);
#412 = AXIS2_PLACEMENT_2D('',#413,#414);
#413 = CARTESIAN_POINT('',(0.,0.));
#414 = DIRECTION('',(1.,-1.332785116031E-19));
#415 = ( GEOMETRIC_REPRESENTATION_CONTEXT(2) 
PARAMETRIC_REPRESENTATION_CONTEXT() REPRESENTATION_CONTEXT('2D SPACE',''
  ) );
#416 = ORIENTED_EDGE('',*,*,#287,.F.);
#417 = ADVANCED_FACE('',(#418),#148,.T.);
#418 = FACE_BOUND('',#419,.T.);
#419 = EDGE_LOOP('',(#420,#441,#442,#463));
#420 = ORIENTED_EDGE('',*,*,#421,.T.);
#421 = EDGE_CURVE('',#352,#22,#422,.T.);
#422 = SURFACE_CURVE('',#423,(#427,#434),.PCURVE_S1.);
#423 = LINE('',#424,#425);
#424 = CARTESIAN_POINT('',(-5.,4.023,0.));
#425 = VECTOR('',#426,1.);
#426 = DIRECTION('',(0.,-1.,0.));
#427 = PCURVE('',#148,#428);
#428 = DEFINITIONAL_REPRESENTATION('',(#429),#433);
#429 = LINE('',#430,#431);
#430 = CARTESIAN_POINT('',(0.,0.));
#431 = VECTOR('',#432,1.);
#432 = DIRECTION('',(1.,0.));
#433 = ( GEOMETRIC_REPRESENTATION_CONTEXT(2) 
PARAMETRIC_REPRESENTATION_CONTEXT() REPRESENTATION_CONTEXT('2D SPACE',''
  ) );
#434 = PCURVE('',#56,#435);
#435 = DEFINITIONAL_REPRESENTATION('',(#436),#440);
#436 = LINE('',#437,#438);
#437 = CARTESIAN_POINT('',(5.025337315012,-6.259290204995));
#438 = VECTOR('',#439,1.);
#439 = DIRECTION('',(-0.626054231346,0.779779519745));
#440 = ( GEOMETRIC_REPRESENTATION_CONTEXT(2) 
PARAMETRIC_REPRESENTATION_CONTEXT() REPRESENTATION_CONTEXT('2D SPACE',''
  ) );
#441 = ORIENTED_EDGE('',*,*,#135,.T.);
#442 = ORIENTED_EDGE('',*,*,#443,.F.);
#443 = EDGE_CURVE('',#375,#108,#444,.T.);
#444 = SURFACE_CURVE('',#445,(#450,#456),.PCURVE_S1.);
#445 = ELLIPSE('',#446,3.998098047822,2.02695029063);
#446 = AXIS2_PLACEMENT_3D('',#447,#448,#449);
#447 = CARTESIAN_POINT('',(0.,-4.E-03,15.));
#448 = DIRECTION('',(0.,0.,1.));
#449 = DIRECTION('',(0.999975476384,7.003329999686E-03,-0.));
#450 = PCURVE('',#148,#451);
#451 = DEFINITIONAL_REPRESENTATION('',(#452),#455);
#452 = B_SPLINE_CURVE_WITH_KNOTS('',1,(#453,#454),.UNSPECIFIED.,.F.,.F.,
  (2,2),(2.127584826382,4.142647354371),.PIECEWISE_BEZIER_KNOTS.);
#453 = CARTESIAN_POINT('',(0.,1.));
#454 = CARTESIAN_POINT('',(8.027,1.));
#455 = ( GEOMETRIC_REPRESENTATION_CONTEXT(2) 
PARAMETRIC_REPRESENTATION_CONTEXT() REPRESENTATION_CONTEXT('2D SPACE',''
  ) );
#456 = PCURVE('',#123,#457);
#457 = DEFINITIONAL_REPRESENTATION('',(#458),#462);
#458 = ELLIPSE('',#459,3.998098047822,2.02695029063);
#459 = AXIS2_PLACEMENT_2D('',#460,#461);
#460 = CARTESIAN_POINT('',(0.,0.));
#461 = DIRECTION('',(1.,-1.332785116031E-19));
#462 = ( GEOMETRIC_REPRESENTATION_CONTEXT(2) 
PARAMETRIC_REPRESENTATION_CONTEXT() REPRESENTATION_CONTEXT('2D SPACE',''
  ) );
#463 = ORIENTED_EDGE('',*,*,#374,.F.);
#464 = ADVANCED_FACE('',(#465),#56,.T.);
#465 = FACE_BOUND('',#466,.F.);
#466 = EDGE_LOOP('',(#467,#468,#469,#470,#471));
#467 = ORIENTED_EDGE('',*,*,#21,.T.);
#468 = ORIENTED_EDGE('',*,*,#177,.T.);
#469 = ORIENTED_EDGE('',*,*,#264,.T.);
#470 = ORIENTED_EDGE('',*,*,#351,.T.);
#471 = ORIENTED_EDGE('',*,*,#421,.T.);
#472 = ADVANCED_FACE('',(#473),#123,.T.);
#473 = FACE_BOUND('',#474,.T.);
#474 = EDGE_LOOP('',(#475,#476,#477,#478,#479));
#475 = ORIENTED_EDGE('',*,*,#107,.T.);
#476 = ORIENTED_EDGE('',*,*,#239,.T.);
#477 = ORIENTED_EDGE('',*,*,#326,.T.);
#478 = ORIENTED_EDGE('',*,*,#396,.T.);
#479 = ORIENTED_EDGE('',*,*,#443,.T.);
#480 = ( GEOMETRIC_REPRESENTATION_CONTEXT(3) 
GLOBAL_UNCERTAINTY_ASSIGNED_CONTEXT((#484)) GLOBAL_UNIT_ASSIGNED_CONTEXT
((#481,#482,#483)) REPRESENTATION_CONTEXT('Context #1',
  '3D Context with UNIT and UNCERTAINTY') );
#481 = ( LENGTH_UNIT() NAMED_UNIT(*) SI_UNIT(.MILLI.,.METRE.) );
#482 = ( NAMED_UNIT(*) PLANE_ANGLE_UNIT() SI_UNIT($,.RADIAN.) );
#483 = ( NAMED_UNIT(*) SI_UNIT($,.STERADIAN.) SOLID_ANGLE_UNIT() );
#484 = UNCERTAINTY_MEASURE_WITH_UNIT(LENGTH_MEASURE(1.E-07),#481,
  'distance_accuracy_value','confusion accuracy');
#485 = PRODUCT_RELATED_PRODUCT_CATEGORY('part',$,(#7));
ENDSEC;
END-ISO-10303-21;
